<svg width="24" height="24" viewBox="0 0 24 24" fill="none" xmlns="http://www.w3.org/2000/svg">
<path d="M23.5 3H3.50002C3.22364 3 3 3.22364 3 3.50002V6H0.500016C0.223641 6 0 6.22364 0 6.50002V19C0 20.103 0.896953 21 2.00002 21H22C23.103 21 24 20.103 24 19V3.50002C24 3.22364 23.7764 3 23.5 3ZM3 19C3 19.5512 2.55127 20 2.00002 20C1.44877 20 1.00003 19.5512 1.00003 19V6.99998H3V19ZM23 19C23 19.5512 22.5513 20 22 20H3.73144C3.90234 19.7055 3.99998 19.3637 3.99998 19V3.99998H23V19H23Z" fill="#23C2A8"/>
<path d="M5.49995 18H15.4999C15.7763 18 16 17.7764 16 17.5V9.50002C16 9.22364 15.7763 9 15.4999 9H5.49995C5.22358 9 4.99994 9.22364 4.99994 9.50002V17.5C4.99998 17.7764 5.22362 18 5.49995 18ZM5.99997 9.99998H15V17H5.99997V9.99998Z" fill="#23C2A8"/>
<path d="M21.4996 9.99996H17.4997C17.2233 9.99996 16.9996 10.2236 16.9996 10.5C16.9996 10.7764 17.2233 11 17.4997 11H21.4996C21.776 11 21.9997 10.7764 21.9997 10.5C21.9997 10.2236 21.776 9.99996 21.4996 9.99996Z" fill="#23C2A8"/>
<path d="M21.4996 13H17.4997C17.2233 13 16.9996 13.2236 16.9996 13.5C16.9996 13.7764 17.2233 14 17.4997 14H21.4996C21.776 14 21.9997 13.7764 21.9997 13.5C21.9997 13.2236 21.776 13 21.4996 13Z" fill="#23C2A8"/>
<path d="M21.4996 16H17.4997C17.2233 16 16.9996 16.2236 16.9996 16.5C16.9996 16.7764 17.2233 17 17.4997 17H21.4996C21.776 17 21.9997 16.7764 21.9997 16.5C21.9996 16.2236 21.776 16 21.4996 16Z" fill="#23C2A8"/>
<path d="M5.49995 6.99993H21.4999C21.7763 6.99993 22 6.77629 22 6.49992C22 6.22354 21.7763 5.9999 21.4999 5.9999H5.49995C5.22358 5.9999 4.99994 6.22354 4.99994 6.49992C4.99998 6.77634 5.22362 6.99993 5.49995 6.99993Z" fill="#23C2A8"/>
<path d="M8.50035 11C7.67319 11 7.00035 11.6729 7.00035 12.5V15.5C7.00035 15.7764 7.22399 16.0001 7.50036 16.0001C7.77674 16.0001 8.00038 15.7764 8.00038 15.5V15H9.00036V15.5C9.00036 15.7764 9.224 16.0001 9.50038 16.0001C9.77675 16.0001 10.0004 15.7764 10.0004 15.5V12.5C10.0003 11.6729 9.3275 11 8.50035 11ZM9.00036 14H8.00038V12.5C8.00038 12.2242 8.22449 12 8.50039 12C8.77625 12 9.00041 12.2241 9.00041 12.5V14H9.00036Z" fill="#23C2A8"/>
<path d="M12.4997 11H11.4997C11.2233 11 10.9997 11.2237 10.9997 11.5001V15.5C10.9997 15.7764 11.2233 16.0001 11.4997 16.0001H12.4997C13.3268 16.0001 13.9997 15.3272 13.9997 14.5001V12.5C13.9997 11.6729 13.3268 11 12.4997 11ZM12.9996 14.5C12.9996 14.7759 12.7755 15 12.4996 15H11.9996V12H12.4997C12.7755 12 12.9997 12.2241 12.9997 12.5V14.5H12.9996Z" fill="#23C2A8"/>
</svg>
