<svg width="25" height="24" viewBox="0 0 25 24" fill="none" xmlns="http://www.w3.org/2000/svg">
<path d="M23.4773 6.23125L18.3749 4.91229V0.703121C18.3749 0.314811 18.0601 0 17.6718 0H0.703121C0.314811 0 0 0.314811 0 0.703121V17.6718C0 18.0601 0.314811 18.3749 0.703121 18.3749H2.10074L1.96565 18.8974C1.86843 19.2735 2.09497 19.6576 2.47138 19.7544L18.903 23.9777C19.2788 24.0743 19.662 23.8481 19.7589 23.4722L23.9822 7.08746C24.0791 6.71167 23.8531 6.32842 23.4773 6.23125ZM1.40624 1.40624H16.9687V16.9687H1.40624V1.40624ZM18.5725 22.4409L3.50337 18.5677L3.5532 18.3749H17.6718C18.0601 18.3749 18.3749 18.0601 18.3749 17.6718V6.36475L22.4451 7.4169L18.5725 22.4409Z" fill="#23C2A8"/>
</svg>
