<svg width="19" height="16" viewBox="0 0 19 16" fill="none" xmlns="http://www.w3.org/2000/svg">
<path fill-rule="evenodd" clip-rule="evenodd" d="M17.9767 1.76792H16.5225V0.55283C16.5225 0.279245 16.3085 0.0528302 16.0359 0.0339623C15.7102 0.0113208 15.3864 0 15.0759 0C11.7699 0 9.99757 1.24906 9.24965 1.96792C8.50361 1.24906 6.72942 0 3.4253 0C3.11288 0 2.79099 0.0113208 2.46531 0.0339623C2.19076 0.0528302 1.97679 0.279245 1.97679 0.55283V1.76792H0.524494C0.234791 1.76792 0 2.00189 0 2.28868V14.0906C0 14.2358 0.0605913 14.3755 0.170413 14.4736C0.278341 14.5717 0.422246 14.6226 0.569937 14.6094C2.55809 14.4377 6.01369 14.4132 6.81274 15.0623C6.85629 15.1 7.90717 16 9.25154 16C10.5959 16 11.6468 15.1 11.6771 15.0717C12.4894 14.4113 15.945 14.4377 17.9312 14.6094C18.0808 14.6245 18.2228 14.5736 18.3308 14.4736C18.4387 14.3755 18.5012 14.2358 18.5012 14.0906V2.28868C18.4993 2.00189 18.2645 1.76792 17.9767 1.76792ZM9.77414 2.93019C10.1301 2.51321 11.6297 1.04151 15.0759 1.04151C15.2065 1.04151 15.341 1.0434 15.4754 1.04717V11.8208C15.4319 11.8208 15.3845 11.8208 15.3353 11.8208C14.0591 11.8208 11.7661 11.9472 9.77414 12.717V2.93019V2.93019ZM3.02578 1.04717C3.16022 1.0434 3.29465 1.04151 3.4253 1.04151C6.87144 1.04151 8.36539 2.50566 8.72705 2.93019V12.717C6.73511 11.9472 4.444 11.8208 3.1659 11.8208C3.11667 11.8208 3.06933 11.8208 3.02578 11.8208V1.04717V1.04717ZM17.4522 13.5302C15.8749 13.4264 12.1978 13.3019 10.9992 14.2792C10.9916 14.2868 10.1907 14.9604 9.24965 14.9604C8.3048 14.9604 7.50575 14.2849 7.48682 14.2679C6.29771 13.3019 2.62247 13.4264 1.04709 13.5302V2.80943H1.97679V12.3566C1.97679 12.5 2.03738 12.6377 2.14152 12.7358C2.24567 12.834 2.38957 12.8849 2.53158 12.8774C2.53916 12.8774 2.77395 12.8642 3.164 12.8642C4.25086 12.8642 6.9964 12.9736 9.01296 13.9811C9.08681 14.0189 9.16823 14.0358 9.24775 14.0358C9.32728 14.0358 9.4087 14.017 9.48254 13.9811C11.4991 12.9736 14.2446 12.8642 15.3315 12.8642C15.7216 12.8642 15.9563 12.8774 15.9639 12.8774C16.1097 12.8849 16.2479 12.834 16.354 12.7358C16.4581 12.6377 16.5187 12.5 16.5187 12.3566V2.80943H17.4484V13.5302H17.4522ZM4.80754 3.96038C5.47783 4.07358 5.84706 3.85849 6.51357 4.48113C6.61392 4.57547 6.74268 4.62264 6.87144 4.62264C7.01155 4.62264 7.14978 4.56792 7.25392 4.45849C7.45084 4.24906 7.44137 3.91887 7.2312 3.72264C6.21819 2.77547 5.26198 2.98113 4.98364 2.93396C4.69962 2.88491 4.42885 3.07547 4.37962 3.36038C4.33228 3.64151 4.52352 3.91132 4.80754 3.96038ZM4.80754 6.87924C5.47783 6.99245 5.84706 6.77736 6.51357 7.4C6.61392 7.49434 6.74268 7.54151 6.87144 7.54151C7.01155 7.54151 7.14978 7.48679 7.25392 7.37736C7.45084 7.16792 7.44137 6.83774 7.2312 6.64151C6.21819 5.69434 5.26198 5.9 4.98364 5.85283C4.69962 5.80377 4.42885 5.99434 4.37962 6.27924C4.33228 6.56226 4.52352 6.83019 4.80754 6.87924ZM4.80754 9.8C5.47783 9.91321 5.84706 9.69811 6.51357 10.3208C6.61392 10.4151 6.74268 10.4623 6.87144 10.4623C7.01155 10.4623 7.14978 10.4075 7.25392 10.2981C7.45084 10.0887 7.44137 9.75849 7.2312 9.56226C6.21819 8.61509 5.26198 8.82075 4.98364 8.77358C4.69962 8.72453 4.42885 8.91509 4.37962 9.2C4.33228 9.48302 4.52352 9.75094 4.80754 9.8ZM13.4986 2.93396C13.2203 2.98113 12.266 2.77547 11.2511 3.72264C11.0409 3.91887 11.0314 4.24906 11.2283 4.45849C11.3306 4.56792 11.4707 4.62264 11.6108 4.62264C11.7396 4.62264 11.8683 4.57547 11.9687 4.48113C12.6333 3.85849 13.0044 4.07358 13.6747 3.96038C13.9587 3.91132 14.1519 3.6434 14.1026 3.36038C14.0534 3.07547 13.7826 2.88491 13.4986 2.93396ZM13.4986 5.85283C13.2203 5.9 12.266 5.69434 11.2511 6.64151C11.0409 6.83774 11.0314 7.16792 11.2283 7.37736C11.3306 7.48679 11.4707 7.54151 11.6108 7.54151C11.7396 7.54151 11.8683 7.49434 11.9687 7.4C12.6333 6.77736 13.0044 6.99245 13.6747 6.87924C13.9587 6.83019 14.1519 6.56226 14.1026 6.27924C14.0534 5.99623 13.7826 5.80377 13.4986 5.85283ZM13.4986 8.77358C13.2203 8.82075 12.266 8.61509 11.2511 9.56226C11.0409 9.75849 11.0314 10.0887 11.2283 10.2981C11.3306 10.4075 11.4707 10.4623 11.6108 10.4623C11.7396 10.4623 11.8683 10.4151 11.9687 10.3208C12.6333 9.69811 13.0044 9.91321 13.6747 9.8C13.9587 9.75094 14.1519 9.48302 14.1026 9.2C14.0534 8.91509 13.7826 8.72453 13.4986 8.77358Z" fill="#23C2A8"/>
</svg>
