<svg width="14" height="18" viewBox="0 0 14 18" fill="none" xmlns="http://www.w3.org/2000/svg">
<path fill-rule="evenodd" clip-rule="evenodd" d="M12.956 0H2.30236C2.00163 0 1.75837 0.235694 1.75837 0.527065V1.6146H0.543984C0.24326 1.6146 0 1.85029 0 2.14166V17.4729C0 17.7643 0.24326 18 0.543984 18H11.1976C11.4984 18 11.7416 17.7643 11.7416 17.4729V16.3873H12.956C13.2567 16.3873 13.5 16.1516 13.5 15.8602V0.527065C13.5 0.235694 13.2567 0 12.956 0ZM10.6537 16.9459H1.08797V15.0789H10.6517V16.9459H10.6537ZM10.6537 14.0247H1.08797V2.66873H10.6517V14.0247H10.6537ZM11.1976 1.6146H2.84825V1.05413H12.412V12.4101H11.7416V2.14166C11.7416 1.85029 11.4984 1.6146 11.1976 1.6146ZM12.412 15.3313H11.7416V13.4643H12.412V15.3313ZM3.89983 6.27281H7.8418C8.14252 6.27281 8.38578 6.03712 8.38578 5.74575C8.38578 5.45438 8.14252 5.21868 7.8418 5.21868H3.89983C3.59911 5.21868 3.35585 5.45438 3.35585 5.74575C3.35585 6.03526 3.59911 6.27281 3.89983 6.27281Z" fill="#23C2A8"/>
</svg>
