<svg width="97" height="14" viewBox="0 0 97 14" fill="none" xmlns="http://www.w3.org/2000/svg">
<path d="M0 7C0 3.13401 3.13401 0 7 0H90C93.866 0 97 3.13401 97 7C97 10.866 93.866 14 90 14H7C3.13401 14 0 10.866 0 7Z" fill="#F95A4E"/>
<path d="M18.1707 9.25L17.1507 8.91C16.9007 9.75 16.2907 10.17 15.4507 10.17C14.2007 10.17 13.4507 9.26 13.4507 7.7C13.4507 6.13 14.2607 5.23 15.4907 5.23C16.3107 5.23 16.8007 5.59 17.0607 6.37L18.0707 5.92C17.6707 4.85 16.7407 4.3 15.4307 4.3C13.5407 4.3 12.3307 5.6 12.3307 7.7C12.3307 9.8 13.5307 11.1 15.4407 11.1C16.7307 11.1 17.7607 10.46 18.1707 9.25Z" fill="white"/>
<path d="M22.2766 4.3C20.3666 4.3 19.1666 5.6 19.1666 7.7C19.1666 9.8 20.3666 11.1 22.2766 11.1C24.1966 11.1 25.3966 9.8 25.3966 7.7C25.3966 5.6 24.1966 4.3 22.2766 4.3ZM22.2766 5.23C23.5266 5.23 24.2766 6.13 24.2766 7.7C24.2766 9.27 23.5266 10.17 22.2766 10.17C21.0366 10.17 20.2866 9.27 20.2866 7.7C20.2866 6.13 21.0366 5.23 22.2766 5.23Z" fill="white"/>
<path d="M33.7378 4.4H32.1778L30.8578 8.22L30.3878 9.79H30.3678L29.9078 8.22L28.5778 4.4H26.9878V11H27.9778V7.18L27.8978 5.36H27.9078L29.9178 11H30.8078L32.8178 5.36H32.8278L32.7578 7.18V11H33.7378V4.4Z" fill="white"/>
<path d="M36.7687 4.4H35.6987V11H36.7687V4.4Z" fill="white"/>
<path d="M44.1361 4.4H43.1461V8.66L43.1861 9.78H43.1761L42.5261 8.55L39.9861 4.4H38.7261V11H39.7061V6.74L39.6661 5.62H39.6761L40.3161 6.84L42.8661 11H44.1361V4.4Z" fill="white"/>
<path d="M48.6494 7.59V8.47H50.6694V8.66C50.6694 9.68 49.8994 10.18 48.8994 10.18C47.5494 10.18 46.8394 9.28 46.8394 7.7C46.8394 6.13 47.6394 5.23 48.8794 5.23C49.7094 5.23 50.3394 5.6 50.5994 6.33L51.5794 5.86C51.0694 4.79 50.2294 4.3 48.8594 4.3C46.9594 4.3 45.7194 5.6 45.7194 7.7C45.7194 9.82 46.9294 11.1 48.7794 11.1C49.7494 11.1 50.4194 10.75 50.7894 10.16L50.8294 11H51.6194V7.59H48.6494Z" fill="white"/>
<path d="M58.8277 4.3C57.2177 4.3 56.2577 5.2 56.2577 6.32C56.2577 7.37 56.9277 7.92 58.7377 8.26C59.9777 8.49 60.3777 8.76 60.3777 9.23C60.3777 9.84 59.7977 10.17 58.8577 10.17C57.8677 10.17 57.2077 9.81 56.7777 9.01L56.0277 9.76C56.5377 10.58 57.4277 11.1 58.8677 11.1C60.4277 11.1 61.4977 10.35 61.4977 9.17C61.4977 8.11 60.8477 7.56 59.0777 7.25C57.7977 7.02 57.3877 6.74 57.3877 6.21C57.3877 5.65 57.8977 5.23 58.8377 5.23C59.7777 5.23 60.2877 5.58 60.6577 6.37L61.4677 5.64C60.8877 4.74 60.0477 4.3 58.8277 4.3Z" fill="white"/>
<path d="M65.7337 4.3C63.8237 4.3 62.6237 5.6 62.6237 7.7C62.6237 9.8 63.8237 11.1 65.7337 11.1C67.6537 11.1 68.8537 9.8 68.8537 7.7C68.8537 5.6 67.6537 4.3 65.7337 4.3ZM65.7337 5.23C66.9837 5.23 67.7337 6.13 67.7337 7.7C67.7337 9.27 66.9837 10.17 65.7337 10.17C64.4937 10.17 63.7437 9.27 63.7437 7.7C63.7437 6.13 64.4937 5.23 65.7337 5.23Z" fill="white"/>
<path d="M73.1848 4.3C71.2748 4.3 70.0748 5.6 70.0748 7.7C70.0748 9.8 71.2748 11.1 73.1848 11.1C75.1048 11.1 76.3048 9.8 76.3048 7.7C76.3048 5.6 75.1048 4.3 73.1848 4.3ZM73.1848 5.23C74.4348 5.23 75.1848 6.13 75.1848 7.7C75.1848 9.27 74.4348 10.17 73.1848 10.17C71.9448 10.17 71.1948 9.27 71.1948 7.7C71.1948 6.13 71.9448 5.23 73.1848 5.23Z" fill="white"/>
<path d="M83.306 4.4H82.316V8.66L82.356 9.78H82.346L81.696 8.55L79.156 4.4H77.896V11H78.876V6.74L78.836 5.62H78.846L79.486 6.84L82.036 11H83.306V4.4Z" fill="white"/>
</svg>
