<svg width="214" height="63" viewBox="0 0 214 63" fill="none" xmlns="http://www.w3.org/2000/svg">
<rect x="0.5" y="0.5" width="213" height="62" rx="2.5" fill="white" stroke="#C1426E"/>
<rect x="149" y="13" width="55" height="29" rx="1.5" fill="#EFEFEF"/>
<circle cx="190" cy="28" r="7" fill="#FD8516"/>
<path d="M186.856 24.2425L186.42 23.7406C186.834 23.391 187.294 23.1057 187.789 22.8908L188.042 23.5065C187.614 23.6935 187.216 23.9407 186.856 24.2425ZM194.677 29.4957C194.818 29.0493 194.893 28.5848 194.902 28.1123L195.47 28.0981L195.566 28.1001C195.557 28.6562 195.469 29.1934 195.306 29.7089L194.677 29.4957ZM193.726 23.868L193.273 24.3546C192.924 24.0405 192.535 23.7796 192.113 23.5774L192.387 22.971C192.875 23.2031 193.324 23.5044 193.726 23.868ZM185.32 26.5441L184.683 26.3583C184.843 25.841 185.077 25.3518 185.379 24.9014L185.923 25.2828C185.662 25.6733 185.46 26.0968 185.32 26.5441ZM195.371 26.544L194.728 26.7075C194.604 26.2557 194.417 25.8255 194.169 25.4262L194.726 25.0638C195.013 25.5245 195.23 26.0215 195.371 26.544ZM190.781 23.1609C190.324 23.0876 189.848 23.0794 189.386 23.137L189.29 22.4781C189.823 22.4102 190.372 22.4197 190.9 22.5057L190.781 23.1609ZM184.633 29.5009C184.5 29.0189 184.433 28.5194 184.433 28.0147C184.433 27.976 184.434 27.9374 184.434 27.899L185.098 27.9239C185.097 27.9541 185.097 27.9844 185.097 28.0147C185.097 28.4553 185.155 28.8916 185.27 29.3124L184.633 29.5009ZM190.604 32.8938C191.069 32.8366 191.521 32.7134 191.949 32.5269L192.226 33.1323C191.731 33.3489 191.209 33.4913 190.671 33.5561L190.604 32.8938ZM194.63 31.1153C194.329 31.5654 193.967 31.9679 193.551 32.3138L193.136 31.7938C193.496 31.4933 193.81 31.1445 194.072 30.7551L194.63 31.1153ZM189.209 32.8669L189.116 33.5263C188.582 33.4407 188.065 33.278 187.578 33.0418L187.878 32.4477C188.3 32.651 188.747 32.7918 189.209 32.8669ZM186.285 32.1718C185.883 31.8101 185.536 31.3938 185.254 30.9326L185.825 30.5945C186.071 30.9934 186.371 31.3539 186.72 31.6684L186.285 32.1718Z" fill="white" stroke="#FD8516" stroke-width="0.2"/>
<path d="M192.333 28.5455H191.509V25H189.421L187 28.9636V29.7727H189.947V31H191.509V29.7727H192.333V28.5455ZM189.483 27.1636C189.667 26.8546 189.842 26.5091 189.956 26.1818H189.974L189.947 27.1727V28.5455H188.64L189.483 27.1636Z" fill="white"/>
<path d="M163.954 27.268H161.367V24.564H160.158V27.268H157.558V28.425H160.158V31.142H161.367V28.425H163.954V27.268ZM167.616 23.42C167.161 24.07 165.705 24.85 165.016 24.941L165.276 26.15C166.056 25.981 166.849 25.539 167.447 24.967C167.434 25.214 167.421 25.448 167.421 25.656V32H168.786V23.42H167.616ZM174.089 32.13C176.26 32.13 177.404 30.596 177.404 27.71C177.404 24.824 176.26 23.29 174.089 23.29C171.918 23.29 170.787 24.824 170.787 27.71C170.787 30.596 171.918 32.13 174.089 32.13ZM174.089 30.947C172.841 30.947 172.204 29.868 172.204 27.71C172.204 25.552 172.841 24.473 174.089 24.473C175.337 24.473 175.987 25.552 175.987 27.71C175.987 29.868 175.337 30.947 174.089 30.947Z" fill="#3E3E3E"/>
<path d="M30.1545 18.0848C29.7729 18.0848 29.398 18.2393 29.1285 18.51C28.8577 18.7794 28.702 19.1544 28.702 19.5373C28.702 19.9191 28.8578 20.2939 29.1285 20.5646C29.3979 20.834 29.7729 20.9898 30.1545 20.9898C30.5374 20.9898 30.9111 20.834 31.1818 20.5646C31.4525 20.2939 31.607 19.9189 31.607 19.5373C31.607 19.1544 31.4525 18.7794 31.1818 18.51C30.9125 18.2393 30.5374 18.0848 30.1545 18.0848Z" fill="#C1426E"/>
<path d="M24.1615 19.7668C20.9897 19.7668 18.4092 22.3472 18.4092 25.5191C18.4092 28.6908 20.9897 31.2711 24.1615 31.2711C27.3333 31.2711 29.9137 28.6908 29.9137 25.5191C29.9137 22.3472 27.3333 19.7668 24.1615 19.7668ZM24.1615 29.2903C22.0819 29.2903 20.3899 27.5985 20.3899 25.5189C20.3899 23.4392 22.0818 21.7473 24.1615 21.7473C26.2412 21.7473 27.9331 23.4392 27.9331 25.5189C27.9331 27.5985 26.2411 29.2903 24.1615 29.2903Z" fill="#C1426E"/>
<path d="M29.163 14.3555H19.1604C15.7636 14.3555 13 17.1192 13 20.516V30.5186C13 33.9156 15.7636 36.6792 19.1604 36.6792H29.163C32.5601 36.6792 35.3237 33.9155 35.3237 30.5186V20.516C35.3238 17.1192 32.5601 14.3555 29.163 14.3555ZM33.3432 30.5186C33.3432 32.8235 31.468 34.6985 29.1632 34.6985H19.1604C16.8557 34.6986 14.9807 32.8235 14.9807 30.5186V20.516C14.9807 18.2113 16.8557 16.3361 19.1604 16.3361H29.163C31.4679 16.3361 33.343 18.2113 33.343 20.516V30.5186H33.3432Z" fill="#C1426E"/>
<path d="M51.05 21.048V19.76H44.372V29H45.87V25.024H49.93V23.722H45.87V21.048H51.05ZM55.0623 21.86C52.8783 21.86 51.5763 23.218 51.5763 25.5C51.5763 27.782 52.8783 29.14 55.0623 29.14C57.2463 29.14 58.5483 27.782 58.5483 25.5C58.5483 23.218 57.2463 21.86 55.0623 21.86ZM55.0623 23.036C56.3223 23.036 57.0503 23.918 57.0503 25.5C57.0503 27.082 56.3223 27.964 55.0623 27.964C53.8023 27.964 53.0883 27.082 53.0883 25.5C53.0883 23.918 53.8023 23.036 55.0623 23.036ZM61.9285 18.85H60.4305V27.166C60.4305 28.524 61.0045 29.14 62.2505 29.14C62.6565 29.14 63.1045 29.056 63.4125 28.902L63.5805 27.698C63.2165 27.838 63.0065 27.88 62.6565 27.88C62.0965 27.88 61.9285 27.642 61.9285 26.956V18.85ZM66.2899 18.85H64.7919V27.166C64.7919 28.524 65.3659 29.14 66.6119 29.14C67.0179 29.14 67.4659 29.056 67.7739 28.902L67.9419 27.698C67.5779 27.838 67.3679 27.88 67.0179 27.88C66.4579 27.88 66.2899 27.642 66.2899 26.956V18.85ZM72.2752 21.86C70.0912 21.86 68.7892 23.218 68.7892 25.5C68.7892 27.782 70.0912 29.14 72.2752 29.14C74.4592 29.14 75.7612 27.782 75.7612 25.5C75.7612 23.218 74.4592 21.86 72.2752 21.86ZM72.2752 23.036C73.5352 23.036 74.2632 23.918 74.2632 25.5C74.2632 27.082 73.5352 27.964 72.2752 27.964C71.0152 27.964 70.3012 27.082 70.3012 25.5C70.3012 23.918 71.0152 23.036 72.2752 23.036ZM86.4964 22L84.9144 27.586L83.1644 22H81.6804L79.9304 27.586L78.3484 22H76.7244L79.0624 29H80.7004L82.3804 23.708L84.1444 29H85.7824L88.1204 22H86.4964ZM98.758 22V25.78C98.758 27.264 97.862 27.908 96.798 27.908C95.916 27.908 95.356 27.516 95.356 26.214V22H93.858V26.606C93.858 28.426 94.978 29.14 96.378 29.14C97.512 29.14 98.38 28.748 98.856 27.866L98.926 29H100.256V22H98.758ZM105.116 29.14C107.048 29.14 108.168 28.258 108.168 27.026C108.168 25.864 107.454 25.262 105.452 24.898C104.136 24.66 103.73 24.394 103.73 23.89C103.73 23.456 104.318 23.036 105.186 23.036C106.096 23.036 106.698 23.386 107.048 24.226L108.112 23.442C107.608 22.364 106.726 21.86 105.172 21.86C103.296 21.86 102.232 22.896 102.232 24.03C102.232 25.206 102.96 25.808 105.046 26.2C106.264 26.438 106.67 26.69 106.67 27.124C106.67 27.6 106.166 27.964 105.172 27.964C104.192 27.964 103.366 27.642 103.002 26.802L101.994 27.67C102.582 28.692 103.758 29.14 105.116 29.14ZM117.625 21.86C115.441 21.86 114.139 23.218 114.139 25.5C114.139 27.782 115.441 29.14 117.625 29.14C119.809 29.14 121.111 27.782 121.111 25.5C121.111 23.218 119.809 21.86 117.625 21.86ZM117.625 23.036C118.885 23.036 119.613 23.918 119.613 25.5C119.613 27.082 118.885 27.964 117.625 27.964C116.365 27.964 115.651 27.082 115.651 25.5C115.651 23.918 116.365 23.036 117.625 23.036ZM126.801 21.86C125.793 21.86 124.911 22.252 124.435 23.176L124.365 22H123.035V29H124.533V25.29C124.533 23.68 125.513 23.092 126.437 23.092C127.291 23.092 127.935 23.554 127.935 24.94V29H129.433V24.464C129.433 22.714 128.285 21.86 126.801 21.86ZM45.87 35.76H44.372V45H45.87V35.76ZM52.1116 37.86C51.1036 37.86 50.2216 38.252 49.7456 39.176L49.6756 38H48.3456V45H49.8436V41.29C49.8436 39.68 50.8236 39.092 51.7476 39.092C52.6016 39.092 53.2456 39.554 53.2456 40.94V45H54.7436V40.464C54.7436 38.714 53.5956 37.86 52.1116 37.86ZM59.5476 45.14C61.4796 45.14 62.5996 44.258 62.5996 43.026C62.5996 41.864 61.8856 41.262 59.8836 40.898C58.5676 40.66 58.1616 40.394 58.1616 39.89C58.1616 39.456 58.7496 39.036 59.6176 39.036C60.5276 39.036 61.1296 39.386 61.4796 40.226L62.5436 39.442C62.0396 38.364 61.1576 37.86 59.6036 37.86C57.7276 37.86 56.6636 38.896 56.6636 40.03C56.6636 41.206 57.3916 41.808 59.4776 42.2C60.6956 42.438 61.1016 42.69 61.1016 43.124C61.1016 43.6 60.5976 43.964 59.6036 43.964C58.6236 43.964 57.7976 43.642 57.4336 42.802L56.4256 43.67C57.0136 44.692 58.1896 45.14 59.5476 45.14ZM68.6097 43.446C68.3017 43.726 67.9517 43.894 67.4757 43.894C66.8597 43.894 66.4537 43.586 66.4537 42.9V39.176H68.9037V38H66.4537V35.942L64.9557 36.362V38H63.6257V39.176H64.9557V43.152C64.9697 44.594 65.8937 45.14 67.0977 45.14C67.8537 45.14 68.5117 44.916 68.9597 44.538L68.6097 43.446ZM76.4463 44.02C76.0683 44.02 75.9283 43.852 75.9283 43.502V40.338C75.9283 38.658 74.7243 37.86 72.9743 37.86C71.4483 37.86 70.3703 38.574 70.0343 39.68L71.1963 40.296C71.4903 39.414 72.1343 39.036 73.0023 39.036C73.9123 39.036 74.4303 39.582 74.4303 40.422V40.786L72.6523 41.108C70.8183 41.43 69.9223 42.228 69.9223 43.306C69.9223 44.524 70.8883 45.14 72.2043 45.14C73.2403 45.14 74.1363 44.762 74.5703 44.09C74.7243 44.86 75.2423 45.14 75.9983 45.14C76.3483 45.14 76.6423 45.07 76.8663 44.972L76.9643 43.964C76.8103 44.006 76.6283 44.02 76.4463 44.02ZM72.5263 44.006C71.8683 44.006 71.4763 43.726 71.4763 43.208C71.4763 42.648 71.9523 42.326 72.9043 42.144L74.4303 41.836V42.676C74.4303 43.516 73.4643 44.006 72.5263 44.006ZM82.484 43.908H80.146C79.614 43.908 79.278 43.67 79.278 43.236C79.278 42.83 79.474 42.578 79.95 42.466C80.3 42.55 80.678 42.592 81.112 42.592C82.946 42.592 84.15 41.654 84.15 40.226C84.15 39.456 83.8 38.826 83.184 38.406C83.394 37.93 83.926 37.664 84.836 37.692L84.584 36.53C83.436 36.502 82.778 37.09 82.526 38.084C82.12 37.944 81.644 37.86 81.112 37.86C79.292 37.86 78.074 38.798 78.074 40.226C78.074 41.066 78.452 41.738 79.152 42.144C78.494 42.368 78.06 42.816 78.06 43.544C78.06 44.188 78.494 44.622 79.04 44.874C78.242 45.084 77.794 45.588 77.794 46.218C77.794 47.254 78.816 48.01 81.126 48.01C83.156 48.01 84.724 47.156 84.724 45.7C84.724 44.58 83.898 43.908 82.484 43.908ZM81.112 38.91C81.98 38.91 82.624 39.442 82.624 40.226C82.624 41.024 81.98 41.556 81.112 41.556C80.258 41.556 79.614 41.024 79.614 40.226C79.614 39.442 80.258 38.91 81.112 38.91ZM81.266 46.89C79.782 46.89 79.068 46.512 79.068 45.896C79.068 45.434 79.474 45.154 80.328 45.154H82.218C83.142 45.154 83.436 45.42 83.436 45.868C83.436 46.414 82.694 46.89 81.266 46.89ZM89.774 37.86C88.696 37.86 87.954 38.336 87.576 39.246L87.436 38H86.162V45H87.66V41.29C87.66 39.862 88.584 39.19 89.424 39.19C89.802 39.19 90.11 39.26 90.306 39.372L90.544 38C90.348 37.902 90.054 37.86 89.774 37.86ZM97.8565 44.02C97.4785 44.02 97.3385 43.852 97.3385 43.502V40.338C97.3385 38.658 96.1345 37.86 94.3845 37.86C92.8585 37.86 91.7805 38.574 91.4445 39.68L92.6065 40.296C92.9005 39.414 93.5445 39.036 94.4125 39.036C95.3225 39.036 95.8405 39.582 95.8405 40.422V40.786L94.0625 41.108C92.2285 41.43 91.3325 42.228 91.3325 43.306C91.3325 44.524 92.2985 45.14 93.6145 45.14C94.6505 45.14 95.5465 44.762 95.9805 44.09C96.1345 44.86 96.6525 45.14 97.4085 45.14C97.7585 45.14 98.0525 45.07 98.2765 44.972L98.3745 43.964C98.2205 44.006 98.0385 44.02 97.8565 44.02ZM93.9365 44.006C93.2785 44.006 92.8865 43.726 92.8865 43.208C92.8865 42.648 93.3625 42.326 94.3145 42.144L95.8405 41.836V42.676C95.8405 43.516 94.8745 44.006 93.9365 44.006ZM108.235 37.86C107.297 37.86 106.275 38.308 105.813 39.26C105.393 38.308 104.455 37.86 103.461 37.86C102.551 37.86 101.683 38.28 101.193 39.162L101.123 38H99.7929V45H101.291V41.276C101.291 39.708 102.271 39.092 103.111 39.092C103.937 39.092 104.553 39.554 104.553 40.702V45H106.051V41.192C106.051 39.834 106.891 39.092 107.871 39.092C108.697 39.092 109.313 39.554 109.313 40.702V45H110.811V40.464C110.825 38.686 109.579 37.86 108.235 37.86Z" fill="#C1426E"/>
</svg>
