<svg width="19" height="17" viewBox="0 0 19 17" fill="none" xmlns="http://www.w3.org/2000/svg">
<path d="M18.2554 1.02004H15.924C15.9333 0.986532 15.937 0.951166 15.937 0.913938C15.937 0.681266 15.7465 0.491405 15.5111 0.491405H12.212C12.212 0.480237 12.2138 0.469068 12.2138 0.456039C12.2138 0.204752 12.0084 0 11.7543 0H6.92703C6.67297 0 6.46747 0.204752 6.46747 0.456039C6.46747 0.467207 6.46934 0.478375 6.46934 0.491405H3.16835C2.93297 0.491405 2.74242 0.681266 2.74242 0.913938C2.74242 0.951166 2.74802 0.986532 2.75549 1.02004H0.425934C0.190549 1.02004 0 1.20804 0 1.44257V11.9054C0 12.1381 0.190549 12.3279 0.425934 12.3279H8.64945L6.23022 16.3615C6.11066 16.5626 6.17604 16.8213 6.3778 16.9404C6.57956 17.0596 6.8411 16.9944 6.96066 16.7934L8.91472 13.536V15.8627C8.91472 16.0954 9.10527 16.2852 9.34066 16.2852C9.57604 16.2852 9.76659 16.0954 9.76659 15.8627V13.536L11.7188 16.7934C11.7991 16.9255 11.9392 17 12.0849 17C12.1597 17 12.2344 16.9814 12.3016 16.9404C12.5034 16.8213 12.5707 16.5607 12.4492 16.3615L10.0319 12.3279H18.2554C18.4908 12.3279 18.6813 12.1381 18.6813 11.9054V1.44257C18.6813 1.20804 18.4908 1.02004 18.2554 1.02004ZM17.8294 11.4829H0.851868V1.8651H17.8313V11.4829H17.8294Z" fill="#23C2A8"/>
</svg>
