<svg width="214" height="63" viewBox="0 0 214 63" fill="none" xmlns="http://www.w3.org/2000/svg">
<rect x="0.5" y="0.5" width="213" height="62" rx="2.5" fill="white" stroke="#03A9F4"/>
<rect x="147" y="13" width="55" height="29" rx="1.5" fill="#EFEFEF"/>
<circle cx="188" cy="28" r="7" fill="#FD8516"/>
<path d="M184.856 24.2425L184.42 23.7406C184.834 23.391 185.294 23.1057 185.789 22.8908L186.042 23.5065C185.614 23.6935 185.216 23.9407 184.856 24.2425ZM192.677 29.4957C192.818 29.0493 192.893 28.5848 192.902 28.1123L193.47 28.0981L193.566 28.1001C193.557 28.6562 193.469 29.1934 193.306 29.7089L192.677 29.4957ZM191.726 23.868L191.273 24.3546C190.924 24.0405 190.535 23.7796 190.113 23.5774L190.387 22.971C190.875 23.2031 191.324 23.5044 191.726 23.868ZM183.32 26.5441L182.683 26.3583C182.843 25.841 183.077 25.3518 183.379 24.9014L183.923 25.2828C183.662 25.6733 183.46 26.0968 183.32 26.5441ZM193.371 26.544L192.728 26.7075C192.604 26.2557 192.417 25.8255 192.169 25.4262L192.726 25.0638C193.013 25.5245 193.23 26.0215 193.371 26.544ZM188.781 23.1609C188.324 23.0876 187.848 23.0794 187.386 23.137L187.29 22.4781C187.823 22.4102 188.372 22.4197 188.9 22.5057L188.781 23.1609ZM182.633 29.5009C182.5 29.0189 182.433 28.5194 182.433 28.0147C182.433 27.976 182.434 27.9374 182.434 27.899L183.098 27.9239C183.097 27.9541 183.097 27.9844 183.097 28.0147C183.097 28.4553 183.155 28.8916 183.27 29.3124L182.633 29.5009ZM188.604 32.8938C189.069 32.8366 189.521 32.7134 189.949 32.5269L190.226 33.1323C189.731 33.3489 189.209 33.4913 188.671 33.5561L188.604 32.8938ZM192.63 31.1153C192.329 31.5654 191.967 31.9679 191.551 32.3138L191.136 31.7938C191.496 31.4933 191.81 31.1445 192.072 30.7551L192.63 31.1153ZM187.209 32.8669L187.116 33.5263C186.582 33.4407 186.065 33.278 185.578 33.0418L185.878 32.4477C186.3 32.651 186.747 32.7918 187.209 32.8669ZM184.285 32.1718C183.883 31.8101 183.536 31.3938 183.254 30.9326L183.825 30.5945C184.071 30.9934 184.371 31.3539 184.72 31.6684L184.285 32.1718Z" fill="white" stroke="#FD8516" stroke-width="0.2"/>
<path d="M190.333 28.5455H189.509V25H187.421L185 28.9636V29.7727H187.947V31H189.509V29.7727H190.333V28.5455ZM187.483 27.1636C187.667 26.8546 187.842 26.5091 187.956 26.1818H187.974L187.947 27.1727V28.5455H186.64L187.483 27.1636Z" fill="white"/>
<path d="M161.954 27.268H159.367V24.564H158.158V27.268H155.558V28.425H158.158V31.142H159.367V28.425H161.954V27.268ZM165.616 23.42C165.161 24.07 163.705 24.85 163.016 24.941L163.276 26.15C164.056 25.981 164.849 25.539 165.447 24.967C165.434 25.214 165.421 25.448 165.421 25.656V32H166.786V23.42H165.616ZM172.089 32.13C174.26 32.13 175.404 30.596 175.404 27.71C175.404 24.824 174.26 23.29 172.089 23.29C169.918 23.29 168.787 24.824 168.787 27.71C168.787 30.596 169.918 32.13 172.089 32.13ZM172.089 30.947C170.841 30.947 170.204 29.868 170.204 27.71C170.204 25.552 170.841 24.473 172.089 24.473C173.337 24.473 173.987 25.552 173.987 27.71C173.987 29.868 173.337 30.947 172.089 30.947Z" fill="#3E3E3E"/>
<path d="M36.8621 21.3195C36.7025 21.1514 36.4457 21.1077 36.236 21.213C36.0205 21.3073 35.7975 21.3849 35.5692 21.4451C35.9253 21.0062 36.1942 20.5077 36.3623 19.9746C36.4363 19.7064 36.2705 19.4311 35.992 19.3598C35.8433 19.3218 35.6848 19.3488 35.5588 19.4338C34.7655 19.8474 33.9222 20.1651 33.0481 20.3797C31.2488 18.7437 28.5078 18.5398 26.4689 19.8902C24.8983 20.9131 24.0337 22.681 24.215 24.4988C20.8104 24.2194 17.678 22.5943 15.5623 20.0098C15.4536 19.8831 15.2892 19.8134 15.1188 19.8218C14.946 19.8318 14.7897 19.9237 14.7014 20.0671C13.9834 21.1977 13.7753 22.5616 14.1254 23.8434C14.3049 24.502 14.6126 25.1218 15.0322 25.6698C14.8432 25.5806 14.6654 25.4711 14.5021 25.3431C14.2784 25.1683 13.9498 25.2013 13.7682 25.4168C13.6929 25.5063 13.6517 25.618 13.6517 25.7332C13.6827 27.5927 14.7427 29.2946 16.4315 30.196C16.2037 30.1691 15.9788 30.1227 15.7595 30.0573C15.4836 29.9774 15.1926 30.128 15.1096 30.3938C15.0734 30.5097 15.0819 30.6344 15.1334 30.7448C15.8664 32.3264 17.3318 33.4815 19.0862 33.8608C17.4147 34.7692 15.4899 35.1509 13.5818 34.9524C13.3344 34.9219 13.1 35.0668 13.0256 35.2961C12.9489 35.5237 13.0492 35.7717 13.2656 35.8892C15.602 37.2263 18.2598 37.9538 20.977 38C23.5838 37.9908 26.1298 37.2408 28.2961 35.844C32.4314 33.2004 35.0089 28.4541 34.6499 24.2073C35.5341 23.5769 36.3012 22.8068 36.9185 21.9297C37.0454 21.7375 37.0222 21.4871 36.8621 21.3195Z" fill="#03A9F4"/>
<path d="M54.05 21.048V19.76H47.372V29H48.87V25.024H52.93V23.722H48.87V21.048H54.05ZM58.0623 21.86C55.8783 21.86 54.5763 23.218 54.5763 25.5C54.5763 27.782 55.8783 29.14 58.0623 29.14C60.2463 29.14 61.5483 27.782 61.5483 25.5C61.5483 23.218 60.2463 21.86 58.0623 21.86ZM58.0623 23.036C59.3223 23.036 60.0503 23.918 60.0503 25.5C60.0503 27.082 59.3223 27.964 58.0623 27.964C56.8023 27.964 56.0883 27.082 56.0883 25.5C56.0883 23.918 56.8023 23.036 58.0623 23.036ZM64.9285 18.85H63.4305V27.166C63.4305 28.524 64.0045 29.14 65.2505 29.14C65.6565 29.14 66.1045 29.056 66.4125 28.902L66.5805 27.698C66.2165 27.838 66.0065 27.88 65.6565 27.88C65.0965 27.88 64.9285 27.642 64.9285 26.956V18.85ZM69.2899 18.85H67.7919V27.166C67.7919 28.524 68.3659 29.14 69.6119 29.14C70.0179 29.14 70.4659 29.056 70.7739 28.902L70.9419 27.698C70.5779 27.838 70.3679 27.88 70.0179 27.88C69.4579 27.88 69.2899 27.642 69.2899 26.956V18.85ZM75.2752 21.86C73.0912 21.86 71.7892 23.218 71.7892 25.5C71.7892 27.782 73.0912 29.14 75.2752 29.14C77.4592 29.14 78.7612 27.782 78.7612 25.5C78.7612 23.218 77.4592 21.86 75.2752 21.86ZM75.2752 23.036C76.5352 23.036 77.2632 23.918 77.2632 25.5C77.2632 27.082 76.5352 27.964 75.2752 27.964C74.0152 27.964 73.3012 27.082 73.3012 25.5C73.3012 23.918 74.0152 23.036 75.2752 23.036ZM89.4964 22L87.9144 27.586L86.1644 22H84.6804L82.9304 27.586L81.3484 22H79.7244L82.0624 29H83.7004L85.3804 23.708L87.1444 29H88.7824L91.1204 22H89.4964ZM101.758 22V25.78C101.758 27.264 100.862 27.908 99.798 27.908C98.916 27.908 98.356 27.516 98.356 26.214V22H96.858V26.606C96.858 28.426 97.978 29.14 99.378 29.14C100.512 29.14 101.38 28.748 101.856 27.866L101.926 29H103.256V22H101.758ZM108.116 29.14C110.048 29.14 111.168 28.258 111.168 27.026C111.168 25.864 110.454 25.262 108.452 24.898C107.136 24.66 106.73 24.394 106.73 23.89C106.73 23.456 107.318 23.036 108.186 23.036C109.096 23.036 109.698 23.386 110.048 24.226L111.112 23.442C110.608 22.364 109.726 21.86 108.172 21.86C106.296 21.86 105.232 22.896 105.232 24.03C105.232 25.206 105.96 25.808 108.046 26.2C109.264 26.438 109.67 26.69 109.67 27.124C109.67 27.6 109.166 27.964 108.172 27.964C107.192 27.964 106.366 27.642 106.002 26.802L104.994 27.67C105.582 28.692 106.758 29.14 108.116 29.14ZM50.242 37.86C48.058 37.86 46.756 39.218 46.756 41.5C46.756 43.782 48.058 45.14 50.242 45.14C52.426 45.14 53.728 43.782 53.728 41.5C53.728 39.218 52.426 37.86 50.242 37.86ZM50.242 39.036C51.502 39.036 52.23 39.918 52.23 41.5C52.23 43.082 51.502 43.964 50.242 43.964C48.982 43.964 48.268 43.082 48.268 41.5C48.268 39.918 48.982 39.036 50.242 39.036ZM59.4182 37.86C58.4102 37.86 57.5282 38.252 57.0522 39.176L56.9822 38H55.6522V45H57.1502V41.29C57.1502 39.68 58.1302 39.092 59.0542 39.092C59.9082 39.092 60.5522 39.554 60.5522 40.94V45H62.0502V40.464C62.0502 38.714 60.9022 37.86 59.4182 37.86ZM75.6151 35.76H67.7891V37.048H70.9531V45H72.4511V37.048H75.6151V35.76ZM85.4632 38L83.8812 43.586L82.1312 38H80.6472L78.8972 43.586L77.3152 38H75.6912L78.0292 45H79.6672L81.3472 39.708L83.1112 45H84.7492L87.0872 38H85.4632ZM89.3985 36.824C90.0425 36.824 90.3925 36.474 90.3925 35.886C90.3925 35.298 90.0425 34.962 89.3985 34.962C88.7545 34.962 88.3905 35.298 88.3905 35.886C88.3905 36.474 88.7545 36.824 89.3985 36.824ZM90.1405 38H88.6425V45H90.1405V38ZM101.738 43.446C101.43 43.726 101.094 43.894 100.604 43.894C100.002 43.894 99.5963 43.586 99.5963 42.9V39.176H102.032V38H99.5963V35.942L98.0983 36.362V38H94.5143V35.942L93.0163 36.362V38H91.6863V39.176H93.0163V43.152C93.0303 44.594 93.9403 45.14 95.1303 45.14C95.8723 45.14 96.5303 44.916 96.9643 44.538L96.6003 43.432C96.3063 43.726 95.9703 43.894 95.4943 43.894C94.8923 43.894 94.5143 43.586 94.5143 42.9V39.176H98.0983V43.152C98.1123 44.594 99.0223 45.14 100.226 45.14C100.982 45.14 101.64 44.916 102.088 44.538L101.738 43.446ZM109.748 41.29C109.748 39.26 108.6 37.86 106.5 37.86C104.316 37.86 103.084 39.218 103.084 41.5C103.084 43.782 104.386 45.14 106.598 45.14C108.138 45.14 109.104 44.552 109.608 43.516L108.362 42.998C108.138 43.614 107.522 43.95 106.598 43.95C105.464 43.95 104.736 43.292 104.568 42.06H109.692C109.72 41.878 109.748 41.556 109.748 41.29ZM106.5 39.05C107.55 39.05 108.208 39.736 108.348 40.912H104.582C104.736 39.708 105.394 39.05 106.5 39.05ZM115.237 37.86C114.159 37.86 113.417 38.336 113.039 39.246L112.899 38H111.625V45H113.123V41.29C113.123 39.862 114.047 39.19 114.887 39.19C115.265 39.19 115.573 39.26 115.769 39.372L116.007 38C115.811 37.902 115.517 37.86 115.237 37.86Z" fill="#03A9F4"/>
</svg>
