<svg width="214" height="63" viewBox="0 0 214 63" fill="none" xmlns="http://www.w3.org/2000/svg">
<rect x="79" y="13" width="55" height="29" rx="1.5" fill="#EFEFEF"/>
<circle cx="120" cy="28" r="7" fill="#FD8516"/>
<path d="M116.856 24.2425L116.42 23.7406C116.834 23.391 117.294 23.1057 117.789 22.8908L118.042 23.5065C117.614 23.6935 117.216 23.9407 116.856 24.2425ZM124.677 29.4957C124.818 29.0493 124.893 28.5848 124.902 28.1123L125.47 28.0981L125.566 28.1001C125.557 28.6562 125.469 29.1934 125.306 29.7089L124.677 29.4957ZM123.726 23.868L123.273 24.3546C122.924 24.0405 122.535 23.7796 122.113 23.5774L122.387 22.971C122.875 23.2031 123.324 23.5044 123.726 23.868ZM115.32 26.5441L114.683 26.3583C114.843 25.841 115.077 25.3518 115.379 24.9014L115.923 25.2828C115.662 25.6733 115.46 26.0968 115.32 26.5441ZM125.371 26.544L124.728 26.7075C124.604 26.2557 124.417 25.8255 124.169 25.4262L124.726 25.0638C125.013 25.5245 125.23 26.0215 125.371 26.544ZM120.781 23.1609C120.324 23.0876 119.848 23.0794 119.386 23.137L119.29 22.4781C119.823 22.4102 120.372 22.4197 120.9 22.5057L120.781 23.1609ZM114.633 29.5009C114.5 29.0189 114.433 28.5194 114.433 28.0147C114.433 27.976 114.434 27.9374 114.434 27.899L115.098 27.9239C115.097 27.9541 115.097 27.9844 115.097 28.0147C115.097 28.4553 115.155 28.8916 115.27 29.3124L114.633 29.5009ZM120.604 32.8938C121.069 32.8366 121.521 32.7134 121.949 32.5269L122.226 33.1323C121.731 33.3489 121.209 33.4913 120.671 33.5561L120.604 32.8938ZM124.63 31.1153C124.329 31.5654 123.967 31.9679 123.551 32.3138L123.136 31.7938C123.496 31.4933 123.81 31.1445 124.072 30.7551L124.63 31.1153ZM119.209 32.8669L119.116 33.5263C118.582 33.4407 118.065 33.278 117.578 33.0418L117.878 32.4477C118.3 32.651 118.747 32.7918 119.209 32.8669ZM116.285 32.1718C115.883 31.8101 115.536 31.3938 115.254 30.9326L115.825 30.5945C116.071 30.9934 116.371 31.3539 116.72 31.6684L116.285 32.1718Z" fill="white" stroke="#FD8516" stroke-width="0.2"/>
<path d="M122.333 28.5455H121.509V25H119.421L117 28.9636V29.7727H119.947V31H121.509V29.7727H122.333V28.5455ZM119.483 27.1636C119.667 26.8546 119.842 26.5091 119.956 26.1818H119.974L119.947 27.1727V28.5455H118.64L119.483 27.1636Z" fill="white"/>
<path d="M93.9536 27.268H91.3666V24.564H90.1576V27.268H87.5576V28.425H90.1576V31.142H91.3666V28.425H93.9536V27.268ZM97.6157 23.42C97.1607 24.07 95.7047 24.85 95.0157 24.941L95.2757 26.15C96.0557 25.981 96.8487 25.539 97.4467 24.967C97.4337 25.214 97.4207 25.448 97.4207 25.656V32H98.7857V23.42H97.6157ZM104.089 32.13C106.26 32.13 107.404 30.596 107.404 27.71C107.404 24.824 106.26 23.29 104.089 23.29C101.918 23.29 100.787 24.824 100.787 27.71C100.787 30.596 101.918 32.13 104.089 32.13ZM104.089 30.947C102.841 30.947 102.204 29.868 102.204 27.71C102.204 25.552 102.841 24.473 104.089 24.473C105.337 24.473 105.987 25.552 105.987 27.71C105.987 29.868 105.337 30.947 104.089 30.947Z" fill="#3E3E3E"/>
<rect x="0.5" y="0.5" width="213" height="62" rx="2.5" fill="white" stroke="#CB2027"/>
<rect x="146" y="14" width="55" height="29" rx="1.5" fill="#EFEFEF"/>
<circle cx="187" cy="29" r="7" fill="#FD8516"/>
<path d="M183.856 25.2425L183.42 24.7406C183.834 24.391 184.294 24.1057 184.789 23.8908L185.042 24.5065C184.614 24.6935 184.216 24.9407 183.856 25.2425ZM191.677 30.4957C191.818 30.0493 191.893 29.5848 191.902 29.1123L192.47 29.0981L192.566 29.1001C192.557 29.6562 192.469 30.1934 192.306 30.7089L191.677 30.4957ZM190.726 24.868L190.273 25.3546C189.924 25.0405 189.535 24.7796 189.113 24.5774L189.387 23.971C189.875 24.2031 190.324 24.5044 190.726 24.868ZM182.32 27.5441L181.683 27.3583C181.843 26.841 182.077 26.3518 182.379 25.9014L182.923 26.2828C182.662 26.6733 182.46 27.0968 182.32 27.5441ZM192.371 27.544L191.728 27.7075C191.604 27.2557 191.417 26.8255 191.169 26.4262L191.726 26.0638C192.013 26.5245 192.23 27.0215 192.371 27.544ZM187.781 24.1609C187.324 24.0876 186.848 24.0794 186.386 24.137L186.29 23.4781C186.823 23.4102 187.372 23.4197 187.9 23.5057L187.781 24.1609ZM181.633 30.5009C181.5 30.0189 181.433 29.5194 181.433 29.0147C181.433 28.976 181.434 28.9374 181.434 28.899L182.098 28.9239C182.097 28.9541 182.097 28.9844 182.097 29.0147C182.097 29.4553 182.155 29.8916 182.27 30.3124L181.633 30.5009ZM187.604 33.8938C188.069 33.8366 188.521 33.7134 188.949 33.5269L189.226 34.1323C188.731 34.3489 188.209 34.4913 187.671 34.5561L187.604 33.8938ZM191.63 32.1153C191.329 32.5654 190.967 32.9679 190.551 33.3138L190.136 32.7938C190.496 32.4933 190.81 32.1445 191.072 31.7551L191.63 32.1153ZM186.209 33.8669L186.116 34.5263C185.582 34.4407 185.065 34.278 184.578 34.0418L184.878 33.4477C185.3 33.651 185.747 33.7918 186.209 33.8669ZM183.285 33.1718C182.883 32.8101 182.536 32.3938 182.254 31.9326L182.825 31.5945C183.071 31.9934 183.371 32.3539 183.72 32.6684L183.285 33.1718Z" fill="white" stroke="#FD8516" stroke-width="0.2"/>
<path d="M189.333 29.5455H188.509V26H186.421L184 29.9636V30.7727H186.947V32H188.509V30.7727H189.333V29.5455ZM186.483 28.1636C186.667 27.8546 186.842 27.5091 186.956 27.1818H186.974L186.947 28.1727V29.5455H185.64L186.483 28.1636Z" fill="white"/>
<path d="M160.954 28.268H158.367V25.564H157.158V28.268H154.558V29.425H157.158V32.142H158.367V29.425H160.954V28.268ZM164.616 24.42C164.161 25.07 162.705 25.85 162.016 25.941L162.276 27.15C163.056 26.981 163.849 26.539 164.447 25.967C164.434 26.214 164.421 26.448 164.421 26.656V33H165.786V24.42H164.616ZM171.089 33.13C173.26 33.13 174.404 31.596 174.404 28.71C174.404 25.824 173.26 24.29 171.089 24.29C168.918 24.29 167.787 25.824 167.787 28.71C167.787 31.596 168.918 33.13 171.089 33.13ZM171.089 31.947C169.841 31.947 169.204 30.868 169.204 28.71C169.204 26.552 169.841 25.473 171.089 25.473C172.337 25.473 172.987 26.552 172.987 28.71C172.987 30.868 172.337 31.947 171.089 31.947Z" fill="#3E3E3E"/>
<path d="M24.3722 17.7119C18.2538 17.7119 15 21.6327 15 25.9079C15 27.8906 16.1079 30.363 17.8813 31.1472C18.1506 31.2686 18.2971 31.217 18.3571 30.9672C18.4101 30.7774 18.6431 29.8635 18.7561 29.4324C18.791 29.2943 18.7729 29.1743 18.6613 29.0445C18.0724 28.3636 17.605 27.1232 17.605 25.9595C17.605 22.9778 19.9756 20.0825 24.0094 20.0825C27.4977 20.0825 29.938 22.3485 29.938 25.5897C29.938 29.2524 28 31.7862 25.4815 31.7862C24.0876 31.7862 23.0495 30.6923 23.3787 29.3389C23.7764 27.7273 24.5564 25.9944 24.5564 24.8321C24.5564 23.7898 23.9676 22.9275 22.7648 22.9275C21.3458 22.9275 20.1947 24.3326 20.1947 26.219C20.1947 27.4176 20.6189 28.2269 20.6189 28.2269C20.6189 28.2269 19.2152 33.8973 18.9543 34.9564C18.5134 36.7493 19.0143 39.6529 19.0575 39.9027C19.084 40.0408 19.2389 40.0841 19.3254 39.971C19.4635 39.7897 21.1602 37.3688 21.636 35.6191C21.809 34.9815 22.5192 32.396 22.5192 32.396C22.9867 33.2401 24.3359 33.9476 25.7731 33.9476C30.0482 33.9476 33.1374 30.19 33.1374 25.527C33.1221 21.0564 29.2962 17.7119 24.3722 17.7119Z" fill="#D82C1F"/>
<path d="M51.05 20.048V18.76H44.372V28H45.87V24.024H49.93V22.722H45.87V20.048H51.05ZM55.0623 20.86C52.8783 20.86 51.5763 22.218 51.5763 24.5C51.5763 26.782 52.8783 28.14 55.0623 28.14C57.2463 28.14 58.5483 26.782 58.5483 24.5C58.5483 22.218 57.2463 20.86 55.0623 20.86ZM55.0623 22.036C56.3223 22.036 57.0503 22.918 57.0503 24.5C57.0503 26.082 56.3223 26.964 55.0623 26.964C53.8023 26.964 53.0883 26.082 53.0883 24.5C53.0883 22.918 53.8023 22.036 55.0623 22.036ZM61.9285 17.85H60.4305V26.166C60.4305 27.524 61.0045 28.14 62.2505 28.14C62.6565 28.14 63.1045 28.056 63.4125 27.902L63.5805 26.698C63.2165 26.838 63.0065 26.88 62.6565 26.88C62.0965 26.88 61.9285 26.642 61.9285 25.956V17.85ZM66.2899 17.85H64.7919V26.166C64.7919 27.524 65.3659 28.14 66.6119 28.14C67.0179 28.14 67.4659 28.056 67.7739 27.902L67.9419 26.698C67.5779 26.838 67.3679 26.88 67.0179 26.88C66.4579 26.88 66.2899 26.642 66.2899 25.956V17.85ZM72.2752 20.86C70.0912 20.86 68.7892 22.218 68.7892 24.5C68.7892 26.782 70.0912 28.14 72.2752 28.14C74.4592 28.14 75.7612 26.782 75.7612 24.5C75.7612 22.218 74.4592 20.86 72.2752 20.86ZM72.2752 22.036C73.5352 22.036 74.2632 22.918 74.2632 24.5C74.2632 26.082 73.5352 26.964 72.2752 26.964C71.0152 26.964 70.3012 26.082 70.3012 24.5C70.3012 22.918 71.0152 22.036 72.2752 22.036ZM86.4964 21L84.9144 26.586L83.1644 21H81.6804L79.9304 26.586L78.3484 21H76.7244L79.0624 28H80.7004L82.3804 22.708L84.1444 28H85.7824L88.1204 21H86.4964ZM98.758 21V24.78C98.758 26.264 97.862 26.908 96.798 26.908C95.916 26.908 95.356 26.516 95.356 25.214V21H93.858V25.606C93.858 27.426 94.978 28.14 96.378 28.14C97.512 28.14 98.38 27.748 98.856 26.866L98.926 28H100.256V21H98.758ZM105.116 28.14C107.048 28.14 108.168 27.258 108.168 26.026C108.168 24.864 107.454 24.262 105.452 23.898C104.136 23.66 103.73 23.394 103.73 22.89C103.73 22.456 104.318 22.036 105.186 22.036C106.096 22.036 106.698 22.386 107.048 23.226L108.112 22.442C107.608 21.364 106.726 20.86 105.172 20.86C103.296 20.86 102.232 21.896 102.232 23.03C102.232 24.206 102.96 24.808 105.046 25.2C106.264 25.438 106.67 25.69 106.67 26.124C106.67 26.6 106.166 26.964 105.172 26.964C104.192 26.964 103.366 26.642 103.002 25.802L101.994 26.67C102.582 27.692 103.758 28.14 105.116 28.14ZM117.625 20.86C115.441 20.86 114.139 22.218 114.139 24.5C114.139 26.782 115.441 28.14 117.625 28.14C119.809 28.14 121.111 26.782 121.111 24.5C121.111 22.218 119.809 20.86 117.625 20.86ZM117.625 22.036C118.885 22.036 119.613 22.918 119.613 24.5C119.613 26.082 118.885 26.964 117.625 26.964C116.365 26.964 115.651 26.082 115.651 24.5C115.651 22.918 116.365 22.036 117.625 22.036ZM126.801 20.86C125.793 20.86 124.911 21.252 124.435 22.176L124.365 21H123.035V28H124.533V24.29C124.533 22.68 125.513 22.092 126.437 22.092C127.291 22.092 127.935 22.554 127.935 23.94V28H129.433V23.464C129.433 21.714 128.285 20.86 126.801 20.86ZM47.928 34.76H44.372V44H45.87V40.514H47.928C49.916 40.514 51.176 39.436 51.176 37.644C51.176 35.838 49.916 34.76 47.928 34.76ZM47.69 39.24H45.87V36.034H47.69C49.02 36.034 49.622 36.594 49.622 37.644C49.622 38.694 49.02 39.24 47.69 39.24ZM53.6953 35.824C54.3393 35.824 54.6893 35.474 54.6893 34.886C54.6893 34.298 54.3393 33.962 53.6953 33.962C53.0513 33.962 52.6873 34.298 52.6873 34.886C52.6873 35.474 53.0513 35.824 53.6953 35.824ZM54.4373 37H52.9393V44H54.4373V37ZM60.5471 36.86C59.5391 36.86 58.6571 37.252 58.1811 38.176L58.1111 37H56.7811V44H58.2791V40.29C58.2791 38.68 59.2591 38.092 60.1831 38.092C61.0371 38.092 61.6811 38.554 61.6811 39.94V44H63.1791V39.464C63.1791 37.714 62.0311 36.86 60.5471 36.86ZM69.5531 42.446C69.2451 42.726 68.8951 42.894 68.4191 42.894C67.8031 42.894 67.3971 42.586 67.3971 41.9V38.176H69.8471V37H67.3971V34.942L65.8991 35.362V37H64.5691V38.176H65.8991V42.152C65.9131 43.594 66.8371 44.14 68.0411 44.14C68.7971 44.14 69.4551 43.916 69.9031 43.538L69.5531 42.446ZM77.5587 40.29C77.5587 38.26 76.4107 36.86 74.3107 36.86C72.1267 36.86 70.8947 38.218 70.8947 40.5C70.8947 42.782 72.1967 44.14 74.4087 44.14C75.9487 44.14 76.9147 43.552 77.4187 42.516L76.1727 41.998C75.9487 42.614 75.3327 42.95 74.4087 42.95C73.2747 42.95 72.5467 42.292 72.3787 41.06H77.5027C77.5307 40.878 77.5587 40.556 77.5587 40.29ZM74.3107 38.05C75.3607 38.05 76.0187 38.736 76.1587 39.912H72.3927C72.5467 38.708 73.2047 38.05 74.3107 38.05ZM83.0474 36.86C81.9694 36.86 81.2274 37.336 80.8494 38.246L80.7094 37H79.4354V44H80.9334V40.29C80.9334 38.862 81.8574 38.19 82.6974 38.19C83.0754 38.19 83.3834 38.26 83.5794 38.372L83.8174 37C83.6214 36.902 83.3274 36.86 83.0474 36.86ZM91.3126 40.29C91.3126 38.26 90.1646 36.86 88.0646 36.86C85.8806 36.86 84.6486 38.218 84.6486 40.5C84.6486 42.782 85.9506 44.14 88.1626 44.14C89.7026 44.14 90.6686 43.552 91.1726 42.516L89.9266 41.998C89.7026 42.614 89.0866 42.95 88.1626 42.95C87.0286 42.95 86.3006 42.292 86.1326 41.06H91.2566C91.2846 40.878 91.3126 40.556 91.3126 40.29ZM88.0646 38.05C89.1146 38.05 89.7726 38.736 89.9126 39.912H86.1466C86.3006 38.708 86.9586 38.05 88.0646 38.05ZM95.7233 44.14C97.6553 44.14 98.7753 43.258 98.7753 42.026C98.7753 40.864 98.0613 40.262 96.0593 39.898C94.7433 39.66 94.3373 39.394 94.3373 38.89C94.3373 38.456 94.9253 38.036 95.7933 38.036C96.7033 38.036 97.3053 38.386 97.6553 39.226L98.7193 38.442C98.2153 37.364 97.3333 36.86 95.7793 36.86C93.9033 36.86 92.8393 37.896 92.8393 39.03C92.8393 40.206 93.5673 40.808 95.6533 41.2C96.8713 41.438 97.2773 41.69 97.2773 42.124C97.2773 42.6 96.7733 42.964 95.7793 42.964C94.7993 42.964 93.9733 42.642 93.6093 41.802L92.6013 42.67C93.1893 43.692 94.3653 44.14 95.7233 44.14ZM104.786 42.446C104.478 42.726 104.128 42.894 103.652 42.894C103.035 42.894 102.63 42.586 102.63 41.9V38.176H105.08V37H102.63V34.942L101.132 35.362V37H99.8015V38.176H101.132V42.152C101.146 43.594 102.07 44.14 103.274 44.14C104.03 44.14 104.688 43.916 105.136 43.538L104.786 42.446Z" fill="#D82C1F"/>
</svg>
