<svg width="214" height="63" viewBox="0 0 214 63" fill="none" xmlns="http://www.w3.org/2000/svg">
<rect x="0.5" y="0.5" width="213" height="62" rx="2.5" fill="white" stroke="#0077B5"/>
<rect x="146" y="14" width="55" height="29" rx="1.5" fill="#EFEFEF"/>
<circle cx="187" cy="29" r="7" fill="#FD8516"/>
<path d="M183.856 25.2426L183.42 24.7406C183.834 24.391 184.294 24.1057 184.789 23.8908L185.042 24.5065C184.614 24.6935 184.216 24.9407 183.856 25.2426ZM191.677 30.4957C191.818 30.0493 191.893 29.5848 191.902 29.1123L192.47 29.0981L192.566 29.1001C192.557 29.6562 192.469 30.1934 192.306 30.7089L191.677 30.4957ZM190.726 24.868L190.273 25.3546C189.924 25.0405 189.535 24.7796 189.113 24.5774L189.387 23.971C189.875 24.2031 190.324 24.5044 190.726 24.868ZM182.32 27.5441L181.683 27.3583C181.843 26.841 182.077 26.3518 182.379 25.9014L182.923 26.2829C182.662 26.6733 182.46 27.0968 182.32 27.5441ZM192.371 27.544L191.728 27.7075C191.604 27.2557 191.417 26.8255 191.169 26.4262L191.726 26.0638C192.013 26.5245 192.23 27.0215 192.371 27.544ZM187.781 24.1609C187.324 24.0876 186.848 24.0794 186.386 24.137L186.29 23.4781C186.823 23.4102 187.372 23.4197 187.9 23.5057L187.781 24.1609ZM181.633 30.5009C181.5 30.0189 181.433 29.5194 181.433 29.0147C181.433 28.976 181.434 28.9374 181.434 28.899L182.098 28.9239C182.097 28.9541 182.097 28.9844 182.097 29.0147C182.097 29.4553 182.155 29.8916 182.27 30.3124L181.633 30.5009ZM187.604 33.8938C188.069 33.8366 188.521 33.7134 188.949 33.5269L189.226 34.1323C188.731 34.3489 188.209 34.4913 187.671 34.5561L187.604 33.8938ZM191.63 32.1153C191.329 32.5654 190.967 32.9679 190.551 33.3138L190.136 32.7938C190.496 32.4933 190.81 32.1445 191.072 31.7551L191.63 32.1153ZM186.209 33.8669L186.116 34.5263C185.582 34.4407 185.065 34.278 184.578 34.0418L184.878 33.4477C185.3 33.651 185.747 33.7918 186.209 33.8669ZM183.285 33.1718C182.883 32.8101 182.536 32.3938 182.254 31.9326L182.825 31.5945C183.071 31.9934 183.371 32.3539 183.72 32.6684L183.285 33.1718Z" fill="white" stroke="#FD8516" stroke-width="0.2"/>
<path d="M189.333 29.5455H188.509V26H186.421L184 29.9636V30.7727H186.947V32H188.509V30.7727H189.333V29.5455ZM186.483 28.1636C186.667 27.8546 186.842 27.5091 186.956 27.1818H186.974L186.947 28.1727V29.5455H185.64L186.483 28.1636Z" fill="white"/>
<path d="M160.954 28.268H158.367V25.564H157.158V28.268H154.558V29.425H157.158V32.142H158.367V29.425H160.954V28.268ZM164.616 24.42C164.161 25.07 162.705 25.85 162.016 25.941L162.276 27.15C163.056 26.981 163.849 26.539 164.447 25.967C164.434 26.214 164.421 26.448 164.421 26.656V33H165.786V24.42H164.616ZM171.089 33.13C173.26 33.13 174.404 31.596 174.404 28.71C174.404 25.824 173.26 24.29 171.089 24.29C168.918 24.29 167.787 25.824 167.787 28.71C167.787 31.596 168.918 33.13 171.089 33.13ZM171.089 31.947C169.841 31.947 169.204 30.868 169.204 28.71C169.204 26.552 169.841 25.473 171.089 25.473C172.337 25.473 172.987 26.552 172.987 28.71C172.987 30.868 172.337 31.947 171.089 31.947Z" fill="#3E3E3E"/>
<g clip-path="url(#clip0_2_76)">
<path d="M30.0924 39.097V39.0963H30.0967V32.8261C30.0967 29.7587 29.4363 27.3958 25.8503 27.3958C24.1264 27.3958 22.9695 28.3418 22.4972 29.2386H22.4474V27.6821H19.0473V39.0963H22.5877V33.4444C22.5877 31.9563 22.8698 30.5173 24.7127 30.5173C26.5285 30.5173 26.5555 32.2156 26.5555 33.5399V39.097H30.0924Z" fill="#0077B5"/>
<path d="M13.2821 27.6825H16.8268V39.0966H13.2821V27.6825Z" fill="#0077B5"/>
<path d="M15.053 22C13.9197 22 13 22.9197 13 24.053C13 25.1864 13.9197 26.1253 15.053 26.1253C16.1864 26.1253 17.106 25.1864 17.106 24.053C17.1053 22.9197 16.1857 22 15.053 22V22Z" fill="#0077B5"/>
</g>
<path d="M46.05 20.048V18.76H39.372V28H40.87V24.024H44.93V22.722H40.87V20.048H46.05ZM50.0623 20.86C47.8783 20.86 46.5763 22.218 46.5763 24.5C46.5763 26.782 47.8783 28.14 50.0623 28.14C52.2463 28.14 53.5483 26.782 53.5483 24.5C53.5483 22.218 52.2463 20.86 50.0623 20.86ZM50.0623 22.036C51.3223 22.036 52.0503 22.918 52.0503 24.5C52.0503 26.082 51.3223 26.964 50.0623 26.964C48.8023 26.964 48.0883 26.082 48.0883 24.5C48.0883 22.918 48.8023 22.036 50.0623 22.036ZM56.9285 17.85H55.4305V26.166C55.4305 27.524 56.0045 28.14 57.2505 28.14C57.6565 28.14 58.1045 28.056 58.4125 27.902L58.5805 26.698C58.2165 26.838 58.0065 26.88 57.6565 26.88C57.0965 26.88 56.9285 26.642 56.9285 25.956V17.85ZM61.2899 17.85H59.7919V26.166C59.7919 27.524 60.3659 28.14 61.6119 28.14C62.0179 28.14 62.4659 28.056 62.7739 27.902L62.9419 26.698C62.5779 26.838 62.3679 26.88 62.0179 26.88C61.4579 26.88 61.2899 26.642 61.2899 25.956V17.85ZM67.2752 20.86C65.0912 20.86 63.7892 22.218 63.7892 24.5C63.7892 26.782 65.0912 28.14 67.2752 28.14C69.4592 28.14 70.7612 26.782 70.7612 24.5C70.7612 22.218 69.4592 20.86 67.2752 20.86ZM67.2752 22.036C68.5352 22.036 69.2632 22.918 69.2632 24.5C69.2632 26.082 68.5352 26.964 67.2752 26.964C66.0152 26.964 65.3012 26.082 65.3012 24.5C65.3012 22.918 66.0152 22.036 67.2752 22.036ZM81.4964 21L79.9144 26.586L78.1644 21H76.6804L74.9304 26.586L73.3484 21H71.7244L74.0624 28H75.7004L77.3804 22.708L79.1444 28H80.7824L83.1204 21H81.4964ZM93.758 21V24.78C93.758 26.264 92.862 26.908 91.798 26.908C90.916 26.908 90.356 26.516 90.356 25.214V21H88.858V25.606C88.858 27.426 89.978 28.14 91.378 28.14C92.512 28.14 93.38 27.748 93.856 26.866L93.926 28H95.256V21H93.758ZM100.116 28.14C102.048 28.14 103.168 27.258 103.168 26.026C103.168 24.864 102.454 24.262 100.452 23.898C99.1359 23.66 98.7299 23.394 98.7299 22.89C98.7299 22.456 99.3179 22.036 100.186 22.036C101.096 22.036 101.698 22.386 102.048 23.226L103.112 22.442C102.608 21.364 101.726 20.86 100.172 20.86C98.2959 20.86 97.2319 21.896 97.2319 23.03C97.2319 24.206 97.9599 24.808 100.046 25.2C101.264 25.438 101.67 25.69 101.67 26.124C101.67 26.6 101.166 26.964 100.172 26.964C99.1919 26.964 98.3659 26.642 98.0019 25.802L96.9939 26.67C97.5819 27.692 98.7579 28.14 100.116 28.14ZM112.625 20.86C110.441 20.86 109.139 22.218 109.139 24.5C109.139 26.782 110.441 28.14 112.625 28.14C114.809 28.14 116.111 26.782 116.111 24.5C116.111 22.218 114.809 20.86 112.625 20.86ZM112.625 22.036C113.885 22.036 114.613 22.918 114.613 24.5C114.613 26.082 113.885 26.964 112.625 26.964C111.365 26.964 110.651 26.082 110.651 24.5C110.651 22.918 111.365 22.036 112.625 22.036ZM121.801 20.86C120.793 20.86 119.911 21.252 119.435 22.176L119.365 21H118.035V28H119.533V24.29C119.533 22.68 120.513 22.092 121.437 22.092C122.291 22.092 122.935 22.554 122.935 23.94V28H124.433V23.464C124.433 21.714 123.285 20.86 121.801 20.86ZM40.87 42.712V34.76H39.372V44H45.966V42.712H40.87ZM48.2989 35.824C48.9429 35.824 49.2929 35.474 49.2929 34.886C49.2929 34.298 48.9429 33.962 48.2989 33.962C47.6549 33.962 47.2909 34.298 47.2909 34.886C47.2909 35.474 47.6549 35.824 48.2989 35.824ZM49.0409 37H47.5429V44H49.0409V37ZM55.1507 36.86C54.1427 36.86 53.2607 37.252 52.7847 38.176L52.7147 37H51.3847V44H52.8827V40.29C52.8827 38.68 53.8627 38.092 54.7867 38.092C55.6407 38.092 56.2847 38.554 56.2847 39.94V44H57.7827V39.464C57.7827 37.714 56.6347 36.86 55.1507 36.86ZM65.0926 44H66.8286L63.9866 39.744L66.6606 37H64.8966L61.5506 40.43V33.85H60.0526V44H61.5506V42.152L62.9366 40.71L65.0926 44ZM74.172 40.29C74.172 38.26 73.024 36.86 70.924 36.86C68.74 36.86 67.508 38.218 67.508 40.5C67.508 42.782 68.81 44.14 71.022 44.14C72.562 44.14 73.528 43.552 74.032 42.516L72.786 41.998C72.562 42.614 71.946 42.95 71.022 42.95C69.888 42.95 69.16 42.292 68.992 41.06H74.116C74.144 40.878 74.172 40.556 74.172 40.29ZM70.924 38.05C71.974 38.05 72.632 38.736 72.772 39.912H69.006C69.16 38.708 69.818 38.05 70.924 38.05ZM81.0327 33.85V38.134C80.6127 37.364 79.8147 36.86 78.7787 36.86C76.8747 36.86 75.6707 38.218 75.6707 40.514C75.6707 42.796 76.8607 44.14 78.7647 44.14C79.8707 44.14 80.7247 43.566 81.1307 42.74L81.2147 44H82.5307V33.85H81.0327ZM79.1007 42.936C77.8967 42.936 77.1687 42.026 77.1687 40.5C77.1687 38.974 77.8967 38.078 79.1007 38.078C80.2767 38.078 81.0327 38.96 81.0327 40.416V40.584C81.0327 42.054 80.2767 42.936 79.1007 42.936ZM85.6094 35.824C86.2534 35.824 86.6034 35.474 86.6034 34.886C86.6034 34.298 86.2534 33.962 85.6094 33.962C84.9654 33.962 84.6014 34.298 84.6014 34.886C84.6014 35.474 84.9654 35.824 85.6094 35.824ZM86.3514 37H84.8534V44H86.3514V37ZM92.4612 36.86C91.4532 36.86 90.5712 37.252 90.0952 38.176L90.0252 37H88.6952V44H90.1932V40.29C90.1932 38.68 91.1732 38.092 92.0972 38.092C92.9512 38.092 93.5952 38.554 93.5952 39.94V44H95.0932V39.464C95.0932 37.714 93.9452 36.86 92.4612 36.86Z" fill="#0077B5"/>
<defs>
<clipPath id="clip0_2_76">
<rect width="17.0966" height="17.0966" fill="white" transform="translate(13 22)"/>
</clipPath>
</defs>
</svg>
