<svg width="214" height="63" viewBox="0 0 214 63" fill="none" xmlns="http://www.w3.org/2000/svg">
<rect x="0.5" y="0.5" width="213" height="62" rx="2.5" fill="white" stroke="#1F519B"/>
<rect x="147" y="13" width="55" height="29" rx="1.5" fill="#EFEFEF"/>
<circle cx="188" cy="28" r="7" fill="#FD8516"/>
<path d="M184.856 24.2425L184.42 23.7406C184.834 23.391 185.294 23.1057 185.789 22.8908L186.042 23.5065C185.614 23.6935 185.216 23.9407 184.856 24.2425ZM192.677 29.4957C192.818 29.0493 192.893 28.5848 192.902 28.1123L193.47 28.0981L193.566 28.1001C193.557 28.6562 193.469 29.1934 193.306 29.7089L192.677 29.4957ZM191.726 23.868L191.273 24.3546C190.924 24.0405 190.535 23.7796 190.113 23.5774L190.387 22.971C190.875 23.2031 191.324 23.5044 191.726 23.868ZM183.32 26.5441L182.683 26.3583C182.843 25.841 183.077 25.3518 183.379 24.9014L183.923 25.2828C183.662 25.6733 183.46 26.0968 183.32 26.5441ZM193.371 26.544L192.728 26.7075C192.604 26.2557 192.417 25.8255 192.169 25.4262L192.726 25.0638C193.013 25.5245 193.23 26.0215 193.371 26.544ZM188.781 23.1609C188.324 23.0876 187.848 23.0794 187.386 23.137L187.29 22.4781C187.823 22.4102 188.372 22.4197 188.9 22.5057L188.781 23.1609ZM182.633 29.5009C182.5 29.0189 182.433 28.5194 182.433 28.0147C182.433 27.976 182.434 27.9374 182.434 27.899L183.098 27.9239C183.097 27.9541 183.097 27.9844 183.097 28.0147C183.097 28.4553 183.155 28.8916 183.27 29.3124L182.633 29.5009ZM188.604 32.8938C189.069 32.8366 189.521 32.7134 189.949 32.5269L190.226 33.1323C189.731 33.3489 189.209 33.4913 188.671 33.5561L188.604 32.8938ZM192.63 31.1153C192.329 31.5654 191.967 31.9679 191.551 32.3138L191.136 31.7938C191.496 31.4933 191.81 31.1445 192.072 30.7551L192.63 31.1153ZM187.209 32.8669L187.116 33.5263C186.582 33.4407 186.065 33.278 185.578 33.0418L185.878 32.4477C186.3 32.651 186.747 32.7918 187.209 32.8669ZM184.285 32.1718C183.883 31.8101 183.536 31.3938 183.254 30.9326L183.825 30.5945C184.071 30.9934 184.371 31.3539 184.72 31.6684L184.285 32.1718Z" fill="white" stroke="#FD8516" stroke-width="0.2"/>
<path d="M190.333 28.5455H189.509V25H187.421L185 28.9636V29.7727H187.947V31H189.509V29.7727H190.333V28.5455ZM187.483 27.1636C187.667 26.8546 187.842 26.5091 187.956 26.1818H187.974L187.947 27.1727V28.5455H186.64L187.483 27.1636Z" fill="white"/>
<path d="M161.954 27.268H159.367V24.564H158.158V27.268H155.558V28.425H158.158V31.142H159.367V28.425H161.954V27.268ZM165.616 23.42C165.161 24.07 163.705 24.85 163.016 24.941L163.276 26.15C164.056 25.981 164.849 25.539 165.447 24.967C165.434 25.214 165.421 25.448 165.421 25.656V32H166.786V23.42H165.616ZM172.089 32.13C174.26 32.13 175.404 30.596 175.404 27.71C175.404 24.824 174.26 23.29 172.089 23.29C169.918 23.29 168.787 24.824 168.787 27.71C168.787 30.596 169.918 32.13 172.089 32.13ZM172.089 30.947C170.841 30.947 170.204 29.868 170.204 27.71C170.204 25.552 170.841 24.473 172.089 24.473C173.337 24.473 173.987 25.552 173.987 27.71C173.987 29.868 173.337 30.947 172.089 30.947Z" fill="#3E3E3E"/>
<path d="M28.0051 15.8565L25.2622 15.8521C22.1806 15.8521 20.1892 17.8952 20.1892 21.0575V23.4576H17.4313C17.193 23.4576 17 23.6508 17 23.8891V27.3665C17 27.6048 17.1932 27.7978 17.4313 27.7978H20.1892V36.5725C20.1892 36.8108 20.3821 37.0038 20.6205 37.0038H24.2187C24.457 37.0038 24.65 36.8105 24.65 36.5725V27.7978H27.8746C28.1129 27.7978 28.3059 27.6048 28.3059 27.3665L28.3072 23.8891C28.3072 23.7747 28.2616 23.6651 28.1809 23.5841C28.1001 23.5031 27.9901 23.4576 27.8757 23.4576H24.65V21.423C24.65 20.4451 24.883 19.9487 26.1569 19.9487L28.0046 19.948C28.2427 19.948 28.4357 19.7548 28.4357 19.5167V16.2877C28.4357 16.0499 28.2429 15.8569 28.0051 15.8565Z" fill="#1F519B"/>
<path d="M41.87 27.712V19.76H40.372V29H46.966V27.712H41.87ZM49.2989 20.824C49.9429 20.824 50.2929 20.474 50.2929 19.886C50.2929 19.298 49.9429 18.962 49.2989 18.962C48.6549 18.962 48.2909 19.298 48.2909 19.886C48.2909 20.474 48.6549 20.824 49.2989 20.824ZM50.0409 22H48.5429V29H50.0409V22ZM57.4247 29H59.1607L56.3187 24.744L58.9927 22H57.2287L53.8827 25.43V18.85H52.3847V29H53.8827V27.152L55.2687 25.71L57.4247 29ZM66.504 25.29C66.504 23.26 65.356 21.86 63.256 21.86C61.072 21.86 59.84 23.218 59.84 25.5C59.84 27.782 61.142 29.14 63.354 29.14C64.894 29.14 65.86 28.552 66.364 27.516L65.118 26.998C64.894 27.614 64.278 27.95 63.354 27.95C62.22 27.95 61.492 27.292 61.324 26.06H66.448C66.476 25.878 66.504 25.556 66.504 25.29ZM63.256 23.05C64.306 23.05 64.964 23.736 65.104 24.912H61.338C61.492 23.708 62.15 23.05 63.256 23.05ZM77.7775 22V25.78C77.7775 27.264 76.8815 27.908 75.8175 27.908C74.9355 27.908 74.3755 27.516 74.3755 26.214V22H72.8775V26.606C72.8775 28.426 73.9975 29.14 75.3975 29.14C76.5315 29.14 77.3995 28.748 77.8755 27.866L77.9455 29H79.2755V22H77.7775ZM84.1355 29.14C86.0675 29.14 87.1875 28.258 87.1875 27.026C87.1875 25.864 86.4735 25.262 84.4715 24.898C83.1555 24.66 82.7495 24.394 82.7495 23.89C82.7495 23.456 83.3375 23.036 84.2055 23.036C85.1155 23.036 85.7175 23.386 86.0675 24.226L87.1315 23.442C86.6275 22.364 85.7455 21.86 84.1915 21.86C82.3155 21.86 81.2515 22.896 81.2515 24.03C81.2515 25.206 81.9795 25.808 84.0655 26.2C85.2835 26.438 85.6895 26.69 85.6895 27.124C85.6895 27.6 85.1855 27.964 84.1915 27.964C83.2115 27.964 82.3855 27.642 82.0215 26.802L81.0135 27.67C81.6015 28.692 82.7775 29.14 84.1355 29.14ZM96.6443 21.86C94.4603 21.86 93.1583 23.218 93.1583 25.5C93.1583 27.782 94.4603 29.14 96.6443 29.14C98.8283 29.14 100.13 27.782 100.13 25.5C100.13 23.218 98.8283 21.86 96.6443 21.86ZM96.6443 23.036C97.9043 23.036 98.6323 23.918 98.6323 25.5C98.6323 27.082 97.9043 27.964 96.6443 27.964C95.3843 27.964 94.6703 27.082 94.6703 25.5C94.6703 23.918 95.3843 23.036 96.6443 23.036ZM105.821 21.86C104.813 21.86 103.931 22.252 103.455 23.176L103.385 22H102.055V29H103.553V25.29C103.553 23.68 104.533 23.092 105.457 23.092C106.311 23.092 106.955 23.554 106.955 24.94V29H108.453V24.464C108.453 22.714 107.305 21.86 105.821 21.86ZM47.05 37.048V35.76H40.372V45H41.87V41.024H45.93V39.722H41.87V37.048H47.05ZM54.085 44.02C53.707 44.02 53.567 43.852 53.567 43.502V40.338C53.567 38.658 52.363 37.86 50.613 37.86C49.087 37.86 48.009 38.574 47.673 39.68L48.835 40.296C49.129 39.414 49.773 39.036 50.641 39.036C51.551 39.036 52.069 39.582 52.069 40.422V40.786L50.291 41.108C48.457 41.43 47.561 42.228 47.561 43.306C47.561 44.524 48.527 45.14 49.843 45.14C50.879 45.14 51.775 44.762 52.209 44.09C52.363 44.86 52.881 45.14 53.637 45.14C53.987 45.14 54.281 45.07 54.505 44.972L54.603 43.964C54.449 44.006 54.267 44.02 54.085 44.02ZM50.165 44.006C49.507 44.006 49.115 43.726 49.115 43.208C49.115 42.648 49.591 42.326 50.543 42.144L52.069 41.836V42.676C52.069 43.516 51.103 44.006 50.165 44.006ZM59.0877 37.86C56.9037 37.86 55.6017 39.218 55.6017 41.5C55.6017 43.782 56.9037 45.14 59.1157 45.14C60.7397 45.14 61.7897 44.328 62.1817 43.054L60.8097 42.592C60.6277 43.46 60.0537 43.95 59.0877 43.95C57.8557 43.95 57.1137 43.096 57.1137 41.514C57.1137 39.932 57.8417 39.05 59.0877 39.05C59.9557 39.05 60.4877 39.512 60.7257 40.38L62.1257 39.82C61.6917 38.672 60.7817 37.86 59.0877 37.86ZM70.1954 41.29C70.1954 39.26 69.0474 37.86 66.9474 37.86C64.7634 37.86 63.5314 39.218 63.5314 41.5C63.5314 43.782 64.8334 45.14 67.0454 45.14C68.5854 45.14 69.5514 44.552 70.0554 43.516L68.8094 42.998C68.5854 43.614 67.9694 43.95 67.0454 43.95C65.9114 43.95 65.1834 43.292 65.0154 42.06H70.1394C70.1674 41.878 70.1954 41.556 70.1954 41.29ZM66.9474 39.05C67.9974 39.05 68.6554 39.736 68.7954 40.912H65.0294C65.1834 39.708 65.8414 39.05 66.9474 39.05ZM75.8242 37.86C74.7882 37.86 73.9902 38.364 73.5702 39.134V34.85H72.0722V45H73.3882L73.4582 43.712C73.8642 44.566 74.7182 45.14 75.8382 45.14C77.7422 45.14 78.9322 43.796 78.9322 41.514C78.9322 39.218 77.7282 37.86 75.8242 37.86ZM75.5022 43.936C74.3262 43.936 73.5702 43.054 73.5702 41.584V41.416C73.5702 39.96 74.3262 39.078 75.5022 39.078C76.7062 39.078 77.4342 39.974 77.4342 41.5C77.4342 43.026 76.7062 43.936 75.5022 43.936ZM83.9568 37.86C81.7728 37.86 80.4708 39.218 80.4708 41.5C80.4708 43.782 81.7728 45.14 83.9568 45.14C86.1408 45.14 87.4428 43.782 87.4428 41.5C87.4428 39.218 86.1408 37.86 83.9568 37.86ZM83.9568 39.036C85.2168 39.036 85.9448 39.918 85.9448 41.5C85.9448 43.082 85.2168 43.964 83.9568 43.964C82.6968 43.964 81.9828 43.082 81.9828 41.5C81.9828 39.918 82.6968 39.036 83.9568 39.036ZM92.4471 37.86C90.2631 37.86 88.9611 39.218 88.9611 41.5C88.9611 43.782 90.2631 45.14 92.4471 45.14C94.6311 45.14 95.9331 43.782 95.9331 41.5C95.9331 39.218 94.6311 37.86 92.4471 37.86ZM92.4471 39.036C93.7071 39.036 94.4351 39.918 94.4351 41.5C94.4351 43.082 93.7071 43.964 92.4471 43.964C91.1871 43.964 90.4731 43.082 90.4731 41.5C90.4731 39.918 91.1871 39.036 92.4471 39.036ZM102.897 45H104.633L101.791 40.744L104.465 38H102.701L99.3553 41.43V34.85H97.8573V45H99.3553V43.152L100.741 41.71L102.897 45Z" fill="#1F519B"/>
</svg>
