<svg width="19" height="19" viewBox="0 0 19 19" fill="none" xmlns="http://www.w3.org/2000/svg">
<path d="M17.8125 8.3125C17.3739 8.3125 16.9904 8.55167 16.7848 8.90625H15.7062C15.5852 7.63199 15.0794 6.46828 14.3061 5.53353L15.0709 4.76874C15.4814 4.87788 15.9168 4.76262 16.2175 4.46185C16.6805 3.99883 16.6805 3.24547 16.2175 2.7825C15.7545 2.31945 15.0011 2.31948 14.5382 2.7825C14.228 3.09262 14.1259 3.53292 14.2313 3.92907L13.4665 4.69385C12.5317 3.92057 11.368 3.4148 10.0938 3.29383V2.21524C10.4483 2.00958 10.6875 1.62606 10.6875 1.1875C10.6875 0.532705 10.1548 0 9.5 0C8.84521 0 8.3125 0.532705 8.3125 1.1875C8.3125 1.62606 8.55167 2.00958 8.90625 2.21524V3.29383C7.63199 3.4148 6.46828 3.92057 5.53353 4.69385L4.76874 3.92907C4.87406 3.53292 4.77197 3.09262 4.46185 2.7825C3.99887 2.31948 3.24551 2.31945 2.7825 2.7825C2.31948 3.24551 2.31948 3.99887 2.7825 4.46185C3.08275 4.76213 3.51804 4.87799 3.92907 4.76874L4.69385 5.53353C3.92057 6.46828 3.4148 7.63199 3.29383 8.90625H2.21524C2.00958 8.55167 1.62606 8.3125 1.1875 8.3125C0.532705 8.3125 0 8.84521 0 9.5C0 10.1548 0.532705 10.6875 1.1875 10.6875C1.62606 10.6875 2.00958 10.4483 2.21524 10.0938H3.29383C3.4148 11.368 3.92057 12.5317 4.69385 13.4665L3.92907 14.2313C3.53292 14.1259 3.09262 14.228 2.7825 14.5382C2.31948 15.0012 2.31948 15.7545 2.7825 16.2175C3.24547 16.6805 3.99883 16.6806 4.46185 16.2175C4.77197 15.9074 4.87406 15.4671 4.76874 15.0709L5.53353 14.3061C6.46828 15.0794 7.63199 15.5852 8.90625 15.7062V16.7848C8.55167 16.9904 8.3125 17.3739 8.3125 17.8125C8.3125 18.4673 8.84521 19 9.5 19C10.1548 19 10.6875 18.4673 10.6875 17.8125C10.6875 17.3739 10.4483 16.9904 10.0938 16.7848V15.7062C11.368 15.5852 12.5317 15.0794 13.4665 14.3061L14.2313 15.0709C14.1259 15.4671 14.228 15.9074 14.5382 16.2175C15.0011 16.6805 15.7545 16.6806 16.2175 16.2175C16.6805 15.7545 16.6805 15.0011 16.2175 14.5382C15.9074 14.228 15.4671 14.1259 15.0709 14.2313L14.3061 13.4665C15.0794 12.5317 15.5852 11.368 15.7062 10.0938H16.7848C16.9904 10.4483 17.3739 10.6875 17.8125 10.6875C18.4673 10.6875 19 10.1548 19 9.5C19 8.84521 18.4673 8.3125 17.8125 8.3125ZM10.0938 14.512V14.25C10.0938 13.9221 9.8279 13.6562 9.5 13.6562C9.1721 13.6562 8.90625 13.9221 8.90625 14.25V14.512C6.59693 14.2404 4.75965 12.4031 4.48801 10.0938H4.75C5.0779 10.0938 5.34375 9.8279 5.34375 9.5C5.34375 9.1721 5.0779 8.90625 4.75 8.90625H4.48801C4.75965 6.59693 6.59693 4.75965 8.90625 4.48801V4.75C8.90625 5.0779 9.1721 5.34375 9.5 5.34375C9.8279 5.34375 10.0938 5.0779 10.0938 4.75V4.48801C12.4031 4.75965 14.2404 6.59693 14.512 8.90625H14.25C13.9221 8.90625 13.6562 9.1721 13.6562 9.5C13.6562 9.8279 13.9221 10.0938 14.25 10.0938H14.512C14.2404 12.4031 12.4031 14.2404 10.0938 14.512Z" fill="#23C2A8"/>
<path d="M10.1875 9.375C10.8433 9.375 11.375 8.84334 11.375 8.1875C11.375 7.53166 10.8433 7 10.1875 7C9.53166 7 9 7.53166 9 8.1875C9 8.84334 9.53166 9.375 10.1875 9.375Z" fill="#23C2A8"/>
<path d="M8.1875 12.375C8.84334 12.375 9.375 11.8433 9.375 11.1875C9.375 10.5317 8.84334 10 8.1875 10C7.53166 10 7 10.5317 7 11.1875C7 11.8433 7.53166 12.375 8.1875 12.375Z" fill="#23C2A8"/>
</svg>
