<svg width="21" height="14" viewBox="0 0 21 14" fill="none" xmlns="http://www.w3.org/2000/svg">
<path fill-rule="evenodd" clip-rule="evenodd" d="M18.3253 0L4.56474 1.05556C3.08368 1.05556 1.89 2.25333 1.89 3.74L0 11.3156C0 12.8022 1.19368 14 2.67474 14H18.3253C19.8063 14 21 12.8022 21 11.3156V2.66222C21 1.19778 19.8063 0 18.3253 0ZM19.9389 11.3156C19.9389 12.2022 19.2095 12.9356 18.3253 12.9356H2.67474C1.79053 12.9356 1.06105 12.2044 1.06105 11.3156L2.95105 3.71778C2.95105 2.83111 3.68053 2.09778 4.56474 2.09778L18.3253 1.04222C19.2095 1.04222 19.9389 1.77333 19.9389 2.66222V11.3156ZM17.4853 3.21778H11.6937C11.4063 3.21778 11.1632 3.46222 11.1632 3.75111C11.1632 4.04 11.4063 4.28444 11.6937 4.28444H17.4632C17.7505 4.28444 17.9937 4.04 17.9937 3.75111C18.0158 3.46222 17.7726 3.21778 17.4853 3.21778ZM17.4853 6.45778H13.9042C13.6168 6.45778 13.3737 6.70222 13.3737 6.99111C13.3737 7.28 13.6168 7.52445 13.9042 7.52445H17.4632C17.7505 7.52445 17.9937 7.28 17.9937 6.99111C17.9937 6.7 17.7726 6.45778 17.4853 6.45778Z" fill="#23C2A8"/>
</svg>
