<svg width="21" height="20" viewBox="0 0 21 20" fill="none" xmlns="http://www.w3.org/2000/svg">
<path d="M20.1271 4.52754L17.4616 0.529626C17.3533 0.366818 17.2064 0.233287 17.034 0.140893C16.8617 0.0484989 16.6692 0.000102 16.4736 9.43085e-07H4.65401C4.45825 -0.000245742 4.26547 0.0479057 4.09282 0.14017C3.92017 0.232434 3.77301 0.36595 3.66443 0.528834L1.00047 4.52715C0.7832 4.85209 0.667462 5.2343 0.66797 5.62519V18.6042C0.66797 18.9191 0.793082 19.2212 1.01578 19.4439C1.23848 19.6666 1.54053 19.7917 1.85547 19.7917H19.2721C19.5871 19.7917 19.8891 19.6666 20.1118 19.4439C20.3345 19.2212 20.4596 18.9191 20.4596 18.6042V5.62519C20.4602 5.23442 20.3444 4.85232 20.1271 4.52754ZM16.8021 0.967813L19.324 4.75H13.6608L12.8913 0.791668H16.4736C16.5387 0.791658 16.6029 0.80773 16.6603 0.838457C16.7178 0.869185 16.7668 0.913617 16.8029 0.967813H16.8021ZM8.1888 5.54167H12.9388V10.0055L10.7617 8.76058C10.7019 8.72643 10.6343 8.70846 10.5654 8.70846C10.4965 8.70846 10.4289 8.72643 10.3691 8.76058L8.1888 10.0055V5.54167ZM12.085 0.791668L12.8545 4.75H8.27312L9.04262 0.791668H12.085ZM4.32666 0.967813C4.36263 0.913895 4.41129 0.869636 4.46837 0.838922C4.52545 0.808209 4.5892 0.791983 4.65401 0.791668H8.2363L7.4668 4.75H1.80322L4.32666 0.967813ZM19.668 18.6042C19.668 18.7092 19.6263 18.8098 19.552 18.8841C19.4778 18.9583 19.3771 19 19.2721 19H1.85547C1.75049 19 1.64981 18.9583 1.57557 18.8841C1.50134 18.8098 1.45964 18.7092 1.45964 18.6042V5.62519C1.45964 5.59708 1.4636 5.56938 1.46557 5.54167H7.39714V10.6875C7.397 10.7571 7.41519 10.8254 7.44987 10.8857C7.48456 10.946 7.53452 10.9961 7.59471 11.0309C7.65491 11.0657 7.72323 11.0841 7.79277 11.0841C7.86232 11.0842 7.93066 11.0659 7.99089 11.0311L10.5638 9.56017L13.1367 11.0311C13.197 11.0659 13.2653 11.0842 13.3348 11.0841C13.4044 11.0841 13.4727 11.0657 13.5329 11.0309C13.5931 10.9961 13.643 10.946 13.6777 10.8857C13.7124 10.8254 13.7306 10.7571 13.7305 10.6875V5.54167H19.662C19.664 5.56938 19.668 5.59708 19.668 5.62519V18.6042Z" fill="#23C2A8"/>
</svg>
