<svg width="12" height="23" viewBox="0 0 12 23" fill="none" xmlns="http://www.w3.org/2000/svg">
<path d="M11.0051 0.856452L8.26215 0.852051C5.1806 0.852051 3.18916 2.8952 3.18916 6.05751V8.45758H0.431295C0.192983 8.45758 0 8.65078 0 8.88909V12.3665C0 12.6048 0.193203 12.7978 0.431295 12.7978H3.18916V21.5725C3.18916 21.8108 3.38214 22.0038 3.62045 22.0038H7.21868C7.457 22.0038 7.64998 21.8105 7.64998 21.5725V12.7978H10.8746C11.1129 12.7978 11.3059 12.6048 11.3059 12.3665L11.3072 8.88909C11.3072 8.77467 11.2616 8.66508 11.1809 8.58411C11.1001 8.50313 10.9901 8.45758 10.8757 8.45758H7.64998V6.42301C7.64998 5.44512 7.88301 4.94869 9.15687 4.94869L11.0046 4.94803C11.2427 4.94803 11.4357 4.75483 11.4357 4.51673V1.28775C11.4357 1.04987 11.2429 0.856892 11.0051 0.856452Z" fill="#1F519B"/>
</svg>
