<svg width="35" height="36" viewBox="0 0 35 36" fill="none" xmlns="http://www.w3.org/2000/svg">
<path d="M3 0.523438H31.1932C32.5739 0.523438 33.6932 1.64273 33.6932 3.02344V32.1165C33.6932 33.4972 32.5739 34.6165 31.1932 34.6165H3C1.61929 34.6165 0.5 33.4972 0.5 32.1165V3.02344C0.5 1.64273 1.61929 0.523438 3 0.523438Z" fill="white" stroke="#1F519B"/>
<path d="M21.9976 7.22165L19.4305 7.21753C16.5464 7.21753 14.6826 9.12973 14.6826 12.0894V14.3356H12.1015C11.8785 14.3356 11.6978 14.5164 11.6978 14.7395V17.994C11.6978 18.2171 11.8787 18.3977 12.1015 18.3977H14.6826V26.6099C14.6826 26.833 14.8632 27.0136 15.0863 27.0136H18.4539C18.6769 27.0136 18.8575 26.8328 18.8575 26.6099V18.3977H21.8754C22.0985 18.3977 22.2791 18.2171 22.2791 17.994L22.2803 14.7395C22.2803 14.6324 22.2377 14.5298 22.1621 14.454C22.0865 14.3782 21.9836 14.3356 21.8765 14.3356H18.8575V12.4314C18.8575 11.5162 19.0756 11.0516 20.2678 11.0516L21.9972 11.051C22.22 11.051 22.4006 10.8702 22.4006 10.6473V7.6253C22.4006 7.40267 22.2202 7.22206 21.9976 7.22165Z" fill="#1F519B"/>
</svg>
