<svg width="12" height="19" viewBox="0 0 12 19" fill="none" xmlns="http://www.w3.org/2000/svg">
<path fill-rule="evenodd" clip-rule="evenodd" d="M11.5386 1.84595H0.461385C0.206828 1.84595 0 2.03792 0 2.2742V18.5699C0 18.8062 0.206828 18.9982 0.461385 18.9982H11.5386C11.7932 18.9982 12 18.8062 12 18.5699V2.2742C12 2.03792 11.7932 1.84595 11.5386 1.84595ZM11.0752 18.1417H0.92476V11.2804H11.0772V18.1417H11.0752ZM2.5595 10.4221L4.27776 8.8272L5.35963 9.47696L4.46868 10.4221H2.5595ZM5.69572 10.4221L7.88333 8.09991L9.7587 10.4221H5.69572ZM11.0752 10.4221H10.9142L8.28306 7.16403C8.19954 7.06066 8.07027 6.9979 7.93106 6.99236C7.79185 6.98313 7.65462 7.03666 7.56712 7.13818L5.97614 8.82535L4.46868 7.91901C4.28571 7.80825 4.04508 7.83225 3.89195 7.97623L1.2529 10.4221H0.92476V2.7043H11.0772V10.4221H11.0752ZM3.40272 5.76667C3.74677 5.76667 4.02519 5.50824 4.02519 5.1889C4.02519 4.86956 3.74677 4.61113 3.40272 4.61113C3.05867 4.61113 2.78223 4.86956 2.78025 5.1889C2.78025 5.50824 3.05867 5.76667 3.40272 5.76667ZM3.30527 13.9773H8.89559C9.15015 13.9773 9.35698 13.7853 9.35698 13.549C9.35698 13.3128 9.15015 13.1208 8.89559 13.1208H3.30527C3.05071 13.1208 2.84388 13.3128 2.84388 13.549C2.8419 13.7853 3.04872 13.9773 3.30527 13.9773ZM3.30527 16.1167H4.27577C4.53033 16.1167 4.73716 15.9247 4.73716 15.6885C4.73716 15.4522 4.53033 15.2602 4.27577 15.2602H3.30527C3.05071 15.2602 2.84388 15.4522 2.84388 15.6885C2.8419 15.9247 3.04872 16.1167 3.30527 16.1167Z" fill="#23C2A8"/>
<path fill-rule="evenodd" clip-rule="evenodd" d="M1.93106 2.48091L9.28737 0.856504V2.25202L10.2121 2.22433V0.428252C10.2101 0.191975 10.0033 0 9.74876 0L0.461385 1.84591C0.206828 1.84591 0 2.03789 0 2.27417V2.54182L1.93106 2.48091Z" fill="#23C2A8"/>
</svg>
