<svg width="448" height="38" viewBox="0 0 448 38" fill="none" xmlns="http://www.w3.org/2000/svg">
<path fill-rule="evenodd" clip-rule="evenodd" d="M123.394 18.9866C125.059 18.2866 126.384 17.2737 127.368 15.9481C128.352 14.6224 128.844 12.9472 128.844 10.9223V10.8471C128.844 8.27176 128.062 6.23327 126.497 4.73321C125.614 3.83317 124.466 3.13314 123.053 2.63312C121.64 2.1331 119.912 1.88269 117.868 1.88269H108.737V1.88429H107.51C106.305 1.88429 105.785 2.24831 105.34 3.03234V28.1382H112.682V20.1867H115.824H115.9L121.236 28.1382H129.714L123.394 18.9866ZM121.464 11.3727C121.464 12.3231 121.123 13.0792 120.441 13.6424C119.76 14.2048 118.789 14.4864 117.527 14.4864H112.682V8.18535H117.489C118.726 8.18535 119.697 8.44137 120.404 8.95419C121.11 9.46701 121.464 10.2478 121.464 11.2983V11.3727Z" fill="#181818"/>
<path d="M62.9117 28.0555L52.3359 1.86076H60.9136L66.4695 17.3046L71.6283 2.9632L71.6767 2.9728C71.8688 2.66399 72.0949 2.40478 72.3944 2.21677C72.7569 1.98796 73.2025 1.87916 73.7644 1.86156H73.7701H76.5295V1.85596H103.743V8.54024H77.7606L69.8812 28.0555H62.9117Z" fill="#181818"/>
<path d="M81.1907 28.0824V21.8438V21.5342H103.433V28.0832H81.1907V28.0824ZM81.2803 18.702V12.4626V12.153H96.9123V18.702H81.2803Z" fill="#181818"/>
<path d="M244.093 28.1295V14.1713L237.98 23.4461H237.484L231.407 14.2425V28.1295H223.747V2.19482V1.87561H231.818L237.805 11.504L243.792 1.87561H251.865V28.1295H244.093Z" fill="#181818"/>
<path d="M157.55 28.2134V20.9667V20.6571H165.284V28.2134H157.55Z" fill="#181818"/>
<path d="M22.7566 17.3259V1.91565H16.1859H16.1778C15.6329 1.93565 15.2244 2.05486 14.8926 2.28446C14.6052 2.48367 14.388 2.73648 14.1361 3.0397L14.1297 3.0389L1.54366 17.8507L2.72234 23.1381H15.1154L15.2074 28.172H22.7574V23.2293H26.0279V17.3259H22.7566ZM15.2066 17.3619H10.0721L15.2066 11.2504V17.3619Z" fill="#181818"/>
<path d="M180.724 28.0524V28.362C182.134 28.362 183.41 28.2172 184.554 27.9252C185.69 27.6348 186.721 27.2339 187.644 26.7219C188.564 26.2107 189.389 25.6011 190.116 24.893C190.834 24.1938 191.497 23.4338 192.105 22.6145L192.293 22.3609L186.555 18.3104L186.37 18.5352C185.646 19.4152 184.867 20.1216 184.036 20.6593C183.237 21.1761 182.213 21.4449 180.94 21.4449C180.095 21.4449 179.337 21.2817 178.651 20.9593C177.958 20.6329 177.366 20.1912 176.867 19.6296C176.369 19.068 175.976 18.3984 175.688 17.6119C175.403 16.8287 175.258 15.9951 175.258 15.103V15.0318C175.258 14.1646 175.402 13.3485 175.688 12.5773C175.975 11.8029 176.368 11.1389 176.867 10.5764C177.366 10.0148 177.958 9.57319 178.651 9.24677C179.337 8.92436 180.095 8.76115 180.94 8.76115C182.116 8.76195 183.095 9.01157 183.9 9.49799C184.726 9.99801 185.488 10.6828 186.187 11.5597L186.38 11.8005L192.103 7.4107L191.93 7.16829C190.802 5.58902 189.352 4.30577 187.591 3.32412C185.81 2.33128 183.612 1.84326 181.013 1.84326C179.085 1.84326 177.284 2.18248 175.616 2.8625C173.953 3.54093 172.516 4.48417 171.314 5.68822C170.113 6.88987 169.168 8.29473 168.484 9.894C167.796 11.4997 167.454 13.2389 167.454 15.1022V15.1734C167.454 17.0607 167.802 18.8184 168.502 20.436C169.199 22.0465 170.143 23.445 171.333 24.6242C172.523 25.8043 173.931 26.7235 175.546 27.3779C177.164 28.034 178.894 28.362 180.727 28.3612V28.0524" fill="#181818"/>
<path d="M149.735 17.2513V1.86023H143.172H143.164C142.62 1.88023 142.212 1.99944 141.88 2.22825C141.593 2.42665 141.376 2.67946 141.125 2.98268L141.118 2.98188L128.549 17.7753L129.726 23.0563H142.104L142.195 28.0837H149.735V23.1467H153.003V17.2505H149.735V17.2513ZM142.194 17.2873H137.065L142.194 11.183V17.2873Z" fill="#181818"/>
<path d="M207.715 1.8031C199.963 1.8031 193.696 7.81535 193.696 15.1101C193.696 22.4048 199.961 28.4058 207.714 28.4058C215.466 28.4058 221.573 22.404 221.573 15.1093C221.573 7.81455 215.469 1.8031 207.715 1.8031ZM207.669 21.4127C204.312 21.4127 201.6 18.567 201.6 15.1077C201.6 11.6483 204.313 8.79699 207.67 8.79699C211.027 8.79699 213.67 11.6475 213.67 15.1077C213.67 18.5662 211.026 21.4127 207.669 21.4127Z" fill="#181818"/>
<path d="M42.0028 1.47998C34.2501 1.47998 27.983 7.49223 27.983 14.7869C27.983 22.0816 34.2477 28.0827 42.0011 28.0827C49.7546 28.0827 55.8603 22.0808 55.8603 14.7861C55.8603 7.49143 49.7562 1.47998 42.0028 1.47998ZM41.9567 21.0896C38.5999 21.0896 35.8874 18.2439 35.8874 14.7845C35.8874 11.3252 38.6007 8.47387 41.9576 8.47387C45.3144 8.47387 47.9575 11.3244 47.9575 14.7845C47.9575 18.2439 45.3136 21.0896 41.9567 21.0896Z" fill="#181818"/>
<path d="M266.485 1.78186H274.363V27.7822H273.636V2.52589H266.485V1.78186Z" fill="#181818"/>
<path d="M283.158 26.7035C284.33 26.9763 285.452 27.1123 286.524 27.1123C289.583 27.1123 291.966 25.9531 293.675 23.6346C295.382 21.3161 296.237 18.0864 296.237 13.9446C296.237 13.3254 296.185 12.3453 296.084 11.0061C295.651 13.2134 294.625 14.943 293.006 16.1951C291.387 17.4479 289.341 18.0736 286.868 18.0736C284.242 18.0736 282.17 17.3607 280.654 15.9351C279.137 14.5094 278.378 12.5317 278.378 10.002C278.378 7.42352 279.162 5.39623 280.729 3.92017C282.297 2.44491 284.394 1.70728 287.02 1.70728C290.181 1.70728 292.635 2.76732 294.382 4.88741C296.128 7.0075 297.002 10.0644 297.002 14.0566C297.002 16.8095 296.581 19.2272 295.74 21.3097C294.899 23.393 293.694 25.0051 292.126 26.1451C290.558 27.286 288.716 27.8564 286.6 27.8564C285.504 27.8564 284.337 27.714 283.101 27.4284C281.864 27.1435 280.686 26.7403 279.564 26.2195L279.946 25.5499C280.914 26.0475 281.986 26.4315 283.158 26.7035ZM283.005 3.38175C281.781 4.00177 280.831 4.88821 280.156 6.04106C279.481 7.19391 279.143 8.53956 279.143 10.0772C279.143 12.3093 279.844 14.0758 281.246 15.3775C282.648 16.6791 284.522 17.3303 286.867 17.3303C288.575 17.3303 290.08 16.9767 291.38 16.2703C292.681 15.5639 293.681 14.6334 294.383 13.4806C295.083 12.3277 295.435 11.0941 295.435 9.77962C295.435 8.71397 295.134 7.60992 294.536 6.46908C293.937 5.32903 293.019 4.37379 291.782 3.60496C290.546 2.83692 289.022 2.45211 287.212 2.45211C285.631 2.45131 284.229 2.76172 283.005 3.38175Z" fill="#181818"/>
<path d="M303.006 26.7035C304.178 26.9763 305.3 27.1123 306.371 27.1123C309.431 27.1123 311.814 25.9531 313.523 23.6346C315.23 21.3161 316.085 18.0864 316.085 13.9446C316.085 13.3254 316.033 12.3453 315.932 11.0061C315.499 13.2134 314.473 14.943 312.854 16.1951C311.235 17.4479 309.189 18.0736 306.716 18.0736C304.09 18.0736 302.018 17.3607 300.501 15.9351C298.984 14.5094 298.226 12.5317 298.226 10.002C298.226 7.42352 299.009 5.39623 300.577 3.92017C302.145 2.44491 304.242 1.70728 306.868 1.70728C310.029 1.70728 312.483 2.76732 314.23 4.88741C315.976 7.0075 316.85 10.0644 316.85 14.0566C316.85 16.8095 316.429 19.2272 315.588 21.3097C314.746 23.393 313.542 25.0051 311.974 26.1451C310.406 27.286 308.564 27.8564 306.448 27.8564C305.352 27.8564 304.185 27.714 302.949 27.4284C301.712 27.1435 300.534 26.7403 299.412 26.2195L299.794 25.5499C300.762 26.0475 301.833 26.4315 303.006 26.7035ZM302.853 3.38175C301.629 4.00177 300.679 4.88821 300.004 6.04106C299.328 7.19391 298.991 8.53956 298.991 10.0772C298.991 12.3093 299.692 14.0758 301.094 15.3775C302.495 16.6791 304.37 17.3303 306.715 17.3303C308.423 17.3303 309.928 16.9767 311.228 16.2703C312.529 15.5639 313.529 14.6334 314.231 13.4806C314.931 12.3277 315.283 11.0941 315.283 9.77962C315.283 8.71397 314.982 7.60992 314.384 6.46908C313.785 5.32903 312.867 4.37379 311.63 3.60496C310.393 2.83692 308.87 2.45211 307.06 2.45211C305.478 2.45131 304.076 2.76172 302.853 3.38175Z" fill="#181818"/>
<path d="M322.853 26.7035C324.026 26.9763 325.148 27.1123 326.219 27.1123C329.279 27.1123 331.662 25.9531 333.37 23.6346C335.078 21.3161 335.933 18.0864 335.933 13.9446C335.933 13.3254 335.881 12.3453 335.78 11.0061C335.347 13.2134 334.32 14.943 332.702 16.1951C331.082 17.4479 329.037 18.0736 326.564 18.0736C323.938 18.0736 321.866 17.3607 320.349 15.9351C318.832 14.5094 318.073 12.5317 318.073 10.002C318.073 7.42352 318.857 5.39623 320.425 3.92017C321.993 2.44491 324.089 1.70728 326.716 1.70728C329.876 1.70728 332.33 2.76732 334.077 4.88741C335.824 7.0075 336.697 10.0644 336.697 14.0566C336.697 16.8095 336.277 19.2272 335.435 21.3097C334.594 23.393 333.39 25.0051 331.822 26.1451C330.254 27.286 328.412 27.8564 326.296 27.8564C325.199 27.8564 324.033 27.714 322.797 27.4284C321.56 27.1435 320.381 26.7403 319.259 26.2195L319.642 25.5499C320.609 26.0475 321.68 26.4315 322.853 26.7035ZM322.7 3.38175C321.476 4.00177 320.526 4.88821 319.851 6.04106C319.175 7.19391 318.838 8.53956 318.838 10.0772C318.838 12.3093 319.538 14.0758 320.941 15.3775C322.342 16.6791 324.217 17.3303 326.562 17.3303C328.27 17.3303 329.774 16.9767 331.075 16.2703C332.376 15.5639 333.376 14.6334 334.077 13.4806C334.778 12.3277 335.129 11.0941 335.129 9.77962C335.129 8.71397 334.83 7.60992 334.231 6.46908C333.632 5.32903 332.714 4.37379 331.477 3.60496C330.24 2.83692 328.717 2.45211 326.907 2.45211C325.326 2.45131 323.924 2.76172 322.7 3.38175Z" fill="#181818"/>
<path d="M378.954 23.2209V28.1307H358.723V24.2249L369.049 14.7397C370.144 13.7229 370.885 12.8492 371.267 12.1172C371.65 11.386 371.84 10.6603 371.84 9.94111C371.84 8.89947 371.477 8.10023 370.751 7.54181C370.024 6.98419 368.959 6.70498 367.558 6.70498C366.385 6.70498 365.326 6.92258 364.383 7.3562C363.439 7.79062 362.649 8.44105 362.012 9.30908L357.499 6.48177C358.545 4.9697 359.985 3.78485 361.821 2.92962C363.657 2.07438 365.76 1.64636 368.131 1.64636C370.119 1.64636 371.86 1.96238 373.351 2.5952C374.842 3.22723 376.002 4.12007 376.831 5.27372C377.66 6.42656 378.074 7.78422 378.074 9.34669C378.074 10.7603 377.768 12.0868 377.157 13.3269C376.545 14.5669 375.359 15.9806 373.6 17.567L367.443 23.2209H378.954Z" fill="#181818"/>
<path d="M385.658 26.9773C383.924 25.9116 382.567 24.3676 381.586 22.3467C380.604 20.3258 380.113 17.9145 380.113 15.112C380.113 12.3103 380.604 9.89895 381.586 7.87727C382.566 5.85638 383.924 4.31312 385.658 3.24587C387.392 2.18023 389.368 1.64661 391.586 1.64661C393.803 1.64661 395.779 2.18023 397.513 3.24587C399.246 4.31232 400.604 5.85638 401.586 7.87727C402.567 9.89895 403.058 12.3103 403.058 15.112C403.058 17.9145 402.568 20.3258 401.586 22.3467C400.604 24.3684 399.246 25.9116 397.513 26.9773C395.779 28.0437 393.803 28.5765 391.586 28.5765C389.368 28.5765 387.392 28.0437 385.658 26.9773ZM395.429 21.4346C396.359 20.0714 396.825 17.9633 396.825 15.1112C396.825 12.2599 396.359 10.1518 395.429 8.7877C394.499 7.42445 393.217 6.74202 391.586 6.74202C389.979 6.74202 388.711 7.42445 387.781 8.7877C386.85 10.1518 386.385 12.2599 386.385 15.1112C386.385 17.9633 386.85 20.0714 387.781 21.4346C388.711 22.7987 389.98 23.4803 391.586 23.4803C393.217 23.4811 394.499 22.7987 395.429 21.4346Z" fill="#181818"/>
<path d="M422.481 27.3868V28.1308H404.125L404.163 27.0523L415.062 15.9303C416.463 14.4926 417.572 13.0846 418.389 11.7085C419.204 10.3324 419.613 9.13639 419.613 8.11875C419.613 6.45788 418.975 5.15543 417.7 4.21299C416.424 3.27055 414.679 2.79933 412.46 2.79933C411.084 2.79933 409.713 3.07854 408.35 3.63616C406.985 4.19379 405.781 4.96982 404.735 5.96106L404.2 5.44024C405.296 4.37459 406.577 3.54336 408.044 2.94814C409.51 2.35291 410.981 2.0553 412.46 2.0553C414.908 2.0553 416.839 2.59452 418.255 3.67377C419.67 4.75221 420.377 6.23467 420.377 8.11875C420.377 9.2348 419.95 10.5245 419.096 11.9869C418.242 13.4502 417.075 14.9382 415.597 16.4503L404.927 27.386H422.481V27.3868Z" fill="#181818"/>
<path d="M441.105 5.43963C442.941 7.69652 443.858 10.9207 443.858 15.1104C443.858 19.3266 442.941 22.5628 441.105 24.8188C439.269 27.0757 436.656 28.2038 433.265 28.2038C429.874 28.2038 427.266 27.0693 425.444 24.8004C423.621 22.5315 422.71 19.3018 422.71 15.1104C422.71 10.9199 423.621 7.69572 425.444 5.43963C427.266 3.18353 429.874 2.05469 433.265 2.05469C436.656 2.05469 439.27 3.18353 441.105 5.43963ZM425.999 5.97885C424.317 8.09894 423.475 11.1431 423.475 15.1104C423.475 19.0786 424.317 22.1283 425.999 24.2612C427.681 26.3941 430.103 27.4598 433.265 27.4598C436.425 27.4598 438.854 26.3941 440.55 24.2612C442.245 22.1291 443.093 19.0786 443.093 15.1104C443.093 11.1431 442.245 8.09894 440.55 5.97885C438.854 3.85876 436.425 2.79872 433.265 2.79872C430.103 2.79872 427.681 3.85876 425.999 5.97885Z" fill="#181818"/>
<path d="M343.374 16.2524H349.123V16.9965H343.374V16.2524Z" fill="#181818"/>
<path d="M363.56 32.1217H363.04L361.354 34.8571L359.669 32.1217H359.114L361.08 35.3095V36.9939H361.593V35.3095L363.56 32.1217Z" fill="#6F6F6F"/>
<path d="M364.783 36.5485V34.7388H367.325V34.3003H364.783V32.5672H367.634V32.1217H364.263V36.9939H367.74V36.5485H364.783Z" fill="#6F6F6F"/>
<path d="M372.635 36.9939H373.183L370.935 32.1217H370.422L368.175 36.9939H368.716L369.306 35.6924H372.045L372.635 36.9939ZM369.495 35.2747L370.675 32.6577L371.855 35.2747H369.495Z" fill="#6F6F6F"/>
<path d="M377.922 36.9939L376.721 35.3235C377.437 35.0938 377.845 34.5578 377.845 33.7922C377.845 32.7481 377.086 32.1217 375.836 32.1217H373.996V36.9939H374.516V35.4487H375.836C375.977 35.4487 376.103 35.4418 376.229 35.4279L377.353 36.9939H377.922ZM375.822 35.0102H374.516V32.5672H375.822C376.805 32.5672 377.325 33.0126 377.325 33.7922C377.325 34.5578 376.805 35.0102 375.822 35.0102Z" fill="#6F6F6F"/>
<path d="M380.427 37.0357C381.684 37.0357 382.26 36.4232 382.26 35.7063C382.26 33.9314 379.233 34.7388 379.233 33.4024C379.233 32.9152 379.633 32.5185 380.532 32.5185C380.968 32.5185 381.46 32.6507 381.881 32.9222L382.057 32.5115C381.663 32.24 381.087 32.08 380.532 32.08C379.282 32.08 378.72 32.6994 378.72 33.4163C378.72 35.2191 381.748 34.3977 381.748 35.7341C381.748 36.2144 381.347 36.5972 380.427 36.5972C379.781 36.5972 379.156 36.3466 378.805 36.0056L378.601 36.4023C378.966 36.7782 379.69 37.0357 380.427 37.0357Z" fill="#6F6F6F"/>
<path d="M387.38 37.0357C388.855 37.0357 389.958 35.9847 389.958 34.5578C389.958 33.131 388.855 32.08 387.38 32.08C385.891 32.08 384.795 33.1379 384.795 34.5578C384.795 35.9777 385.891 37.0357 387.38 37.0357ZM387.38 36.5763C386.193 36.5763 385.308 35.7202 385.308 34.5578C385.308 33.3955 386.193 32.5393 387.38 32.5393C388.56 32.5393 389.438 33.3955 389.438 34.5578C389.438 35.7202 388.56 36.5763 387.38 36.5763Z" fill="#6F6F6F"/>
<path d="M394.494 32.5672V32.1217H391.123V36.9939H391.643V34.9267H394.185V34.4813H391.643V32.5672H394.494Z" fill="#6F6F6F"/>
<path d="M397.925 36.5485V34.7388H400.468V34.3003H397.925V32.5672H400.777V32.1217H397.406V36.9939H400.882V36.5485H397.925Z" fill="#6F6F6F"/>
<path d="M405.73 36.9939L403.854 34.4743L405.596 32.1217H405.034L403.559 34.1124L402.077 32.1217H401.48L403.229 34.4882L401.361 36.9939H401.958L403.538 34.8502L405.126 36.9939H405.73Z" fill="#6F6F6F"/>
<path d="M408.608 37.0357C409.332 37.0357 409.978 36.7921 410.414 36.3188L410.083 35.9916C409.683 36.4023 409.191 36.5763 408.63 36.5763C407.443 36.5763 406.551 35.7132 406.551 34.5578C406.551 33.4024 407.443 32.5393 408.63 32.5393C409.191 32.5393 409.683 32.7133 410.083 33.117L410.414 32.7899C409.978 32.3166 409.332 32.08 408.615 32.08C407.133 32.08 406.038 33.131 406.038 34.5578C406.038 35.9847 407.133 37.0357 408.608 37.0357Z" fill="#6F6F6F"/>
<path d="M412.041 36.5485V34.7388H414.584V34.3003H412.041V32.5672H414.893V32.1217H411.521V36.9939H414.998V36.5485H412.041Z" fill="#6F6F6F"/>
<path d="M416.22 36.9939H419.493V36.5485H416.74V32.1217H416.22V36.9939Z" fill="#6F6F6F"/>
<path d="M420.356 36.9939H423.629V36.5485H420.876V32.1217H420.356V36.9939Z" fill="#6F6F6F"/>
<path d="M425.012 36.5485V34.7388H427.554V34.3003H425.012V32.5672H427.863V32.1217H424.492V36.9939H427.969V36.5485H425.012Z" fill="#6F6F6F"/>
<path d="M432.786 32.1217V36.0752L429.619 32.1217H429.19V36.9939H429.71V33.0405L432.871 36.9939H433.299V32.1217H432.786Z" fill="#6F6F6F"/>
<path d="M437.039 37.0357C437.762 37.0357 438.409 36.7921 438.844 36.3188L438.514 35.9916C438.114 36.4023 437.622 36.5763 437.06 36.5763C435.873 36.5763 434.981 35.7132 434.981 34.5578C434.981 33.4024 435.873 32.5393 437.06 32.5393C437.622 32.5393 438.114 32.7133 438.514 33.117L438.844 32.7899C438.409 32.3166 437.762 32.08 437.046 32.08C435.564 32.08 434.468 33.131 434.468 34.5578C434.468 35.9847 435.564 37.0357 437.039 37.0357Z" fill="#6F6F6F"/>
<path d="M440.472 36.5485V34.7388H443.014V34.3003H440.472V32.5672H443.323V32.1217H439.952V36.9939H443.429V36.5485H440.472Z" fill="#6F6F6F"/>
</svg>
