<svg width="252" height="28" viewBox="0 0 252 28" fill="none" xmlns="http://www.w3.org/2000/svg">
<path fill-rule="evenodd" clip-rule="evenodd" d="M122.668 18.2033C124.345 17.4753 125.678 16.4219 126.669 15.0433C127.66 13.6646 128.155 11.9224 128.155 9.81653V9.73832C128.155 7.06004 127.367 4.94006 125.792 3.38002C124.903 2.44399 123.747 1.71598 122.325 1.19596C120.903 0.67595 119.163 0.415527 117.105 0.415527H107.912V0.417191H106.677C105.463 0.417191 104.941 0.795761 104.492 1.61114V27.7208H111.884V19.4513H115.046H115.122L120.495 27.7208H129.03L122.668 18.2033ZM120.725 10.2841C120.725 11.2726 120.382 12.0588 119.696 12.6446C119.01 13.2295 118.032 13.5223 116.762 13.5223H111.885V6.96852H116.724C117.969 6.96852 118.946 7.23477 119.657 7.76809C120.369 8.30142 120.725 9.11347 120.725 10.2059V10.2841Z" fill="#252525"/>
<path d="M61.7798 27.6357L51.1331 0.393664H59.7683L65.3615 16.455L70.5549 1.54019L70.6036 1.55017C70.7971 1.22901 71.0246 0.959438 71.3261 0.763913C71.6911 0.525955 72.1397 0.4128 72.7054 0.394496H72.711H75.489V0.388672H102.885V7.34021H76.7276L68.7953 27.6357H61.7798Z" fill="#252525"/>
<path d="M80.1813 27.666V21.1779V20.8559H102.573V27.6668H80.1813V27.666ZM80.2707 17.9105V11.4216V11.0996H96.0076V17.9105H80.2707Z" fill="#252525"/>
<path d="M244.177 27.7147V13.1976L238.022 22.8432H237.523L231.405 13.2725V27.7147H223.693V0.743109V0.411133H231.819L237.847 10.4245L243.874 0.411133H252V27.7147H244.177Z" fill="#252525"/>
<path d="M157.053 27.7997V20.2633V19.9404H164.838V27.7997H157.053Z" fill="#252525"/>
<path d="M21.3553 16.4782V0.452637H14.7405H14.7324C14.1838 0.473437 13.7725 0.597408 13.4385 0.836199C13.1492 1.04337 12.9305 1.30629 12.677 1.62163L12.6705 1.62079L0 17.0248L1.18659 22.5237H13.662L13.7546 27.7587H21.3553V22.6185H24.6477V16.479H21.3553V16.4782ZM13.7546 16.5165H8.58568L13.7546 10.1607V16.5165Z" fill="#252525"/>
<path d="M180.383 27.634V27.9559C181.802 27.9559 183.087 27.8054 184.238 27.5017C185.382 27.1996 186.42 26.7828 187.349 26.2503C188.275 25.7186 189.106 25.0846 189.837 24.3483C190.56 23.6211 191.228 22.8307 191.84 21.9787L192.029 21.715L186.252 17.5024L186.066 17.7362C185.337 18.6515 184.554 19.3861 183.716 19.9452C182.912 20.4827 181.881 20.7623 180.6 20.7623C179.749 20.7623 178.986 20.5926 178.296 20.2573C177.597 19.9178 177.002 19.4585 176.499 18.8744C175.998 18.2904 175.602 17.594 175.313 16.7761C175.025 15.9615 174.88 15.0946 174.88 14.1669V14.0928C174.88 13.1909 175.024 12.3422 175.312 11.5402C175.601 10.7348 175.997 10.0442 176.499 9.45929C177.002 8.87521 177.597 8.41594 178.296 8.07647C178.986 7.74117 179.749 7.57144 180.6 7.57144C181.784 7.57227 182.77 7.83186 183.58 8.33773C184.411 8.85774 185.179 9.56995 185.882 10.4818L186.076 10.7323L191.837 6.16699L191.663 5.91488C190.528 4.27247 189.068 2.93791 187.296 1.91702C185.502 0.884486 183.29 0.376953 180.673 0.376953C178.732 0.376953 176.919 0.72973 175.24 1.43695C173.566 2.1425 172.12 3.12345 170.909 4.37565C169.7 5.62534 168.749 7.08637 168.06 8.74958C167.368 10.4194 167.023 12.2283 167.023 14.166V14.2401C167.023 16.2028 167.374 18.0308 168.079 19.7131C168.78 21.388 169.73 22.8423 170.928 24.0687C172.126 25.296 173.543 26.252 175.17 26.9326C176.798 27.6148 178.54 27.9559 180.385 27.9551V27.634" fill="#252525"/>
<path d="M149.185 16.3996V0.394043H142.578H142.57C142.022 0.414843 141.612 0.538815 141.278 0.776773C140.988 0.983114 140.77 1.24603 140.517 1.56137L140.511 1.56054L127.857 16.9454L129.042 22.4376H141.503L141.595 27.666H149.186V22.5316H152.475V16.3996H149.185ZM141.594 16.4371H136.431L141.594 10.0888V16.4371Z" fill="#252525"/>
<path d="M207.556 0.334473C199.751 0.334473 193.443 6.58711 193.443 14.1735C193.443 21.7598 199.749 28.0008 207.554 28.0008C215.359 28.0008 221.506 21.759 221.506 14.1726C221.506 6.58628 215.361 0.334473 207.556 0.334473ZM207.509 20.7281C204.129 20.7281 201.398 17.7686 201.398 14.171C201.398 10.5733 204.13 7.608 207.509 7.608C210.889 7.608 213.55 10.5725 213.55 14.171C213.55 17.7678 210.889 20.7281 207.509 20.7281Z" fill="#252525"/>
<path d="M40.7302 0C32.9256 0 26.6163 6.25264 26.6163 13.839C26.6163 21.4254 32.9231 27.6664 40.7286 27.6664C48.534 27.6664 54.6807 21.4245 54.6807 13.8382C54.6807 6.25181 48.5357 0 40.7302 0ZM40.6831 20.3937C37.3037 20.3937 34.573 17.4342 34.573 13.8365C34.573 10.2388 37.3045 7.27353 40.6839 7.27353C44.0632 7.27353 46.7241 10.238 46.7241 13.8365C46.7249 17.4333 44.0632 20.3937 40.6831 20.3937Z" fill="#252525"/>
</svg>
