<svg width="37" height="14" viewBox="0 0 37 14" fill="none" xmlns="http://www.w3.org/2000/svg">
<path d="M12.274 5.257H9.205V6.517H11.653V7.714H9.205V10H7.657V4.06H12.274V5.257ZM16.4527 4.06C17.1607 4.06 17.7097 4.225 18.0997 4.555C18.4957 4.885 18.6937 5.329 18.6937 5.887C18.6937 6.331 18.5887 6.697 18.3787 6.985C18.1747 7.267 17.8807 7.474 17.4967 7.606L19.0447 10H17.3347L16.0657 7.831H15.1387V10H13.6177V4.06H16.4527ZM16.2367 6.733C16.5367 6.733 16.7617 6.673 16.9117 6.553C17.0617 6.433 17.1367 6.241 17.1367 5.977C17.1367 5.479 16.8367 5.23 16.2367 5.23H15.1387V6.733H16.2367ZM20.2728 10V4.06H24.8988V5.257H21.8208V6.463H24.2688V7.588H21.8208V8.803H25.0158V10H20.2728ZM26.4006 10V4.06H31.0266V5.257H27.9486V6.463H30.3966V7.588H27.9486V8.803H31.1436V10H26.4006Z" fill="#23C2A8"/>
<rect x="0.5" y="0.5" width="36" height="13" rx="6.5" stroke="#23C2A8"/>
</svg>
