<svg width="38" height="37" viewBox="0 0 38 37" fill="none" xmlns="http://www.w3.org/2000/svg">
<path d="M0 2C0 0.895432 0.895431 0 2 0H36C37.1046 0 38 0.89543 38 2V35C38 36.1046 37.1046 37 36 37H2C0.89543 37 0 36.1046 0 35V2Z" fill="#23C2A8"/>
<path fill-rule="evenodd" clip-rule="evenodd" d="M26 19.4167H12C11.44 19.4167 11 19.0133 11 18.5C11 17.9867 11.44 17.5833 12 17.5833H26C26.56 17.5833 27 17.9867 27 18.5C27 19.0133 26.56 19.4167 26 19.4167ZM26 12.8333H12C11.44 12.8333 11 12.43 11 11.9167C11 11.4033 11.44 11 12 11H26C26.56 11 27 11.4033 27 11.9167C27 12.43 26.56 12.8333 26 12.8333ZM12 24.1667H26C26.56 24.1667 27 24.57 27 25.0833C27 25.5967 26.56 26 26 26H12C11.44 26 11 25.5967 11 25.0833C11 24.57 11.44 24.1667 12 24.1667Z" fill="white"/>
</svg>
