<svg width="42" height="42" viewBox="0 0 42 42" fill="none" xmlns="http://www.w3.org/2000/svg">
<circle cx="21" cy="21" r="20.35" fill="white" stroke="#23C2A8" stroke-width="1.3"/>
<path d="M25.6135 23.195C26.5264 21.9254 27.0724 20.3659 27.0724 18.6753C27.0724 14.4433 23.6915 11 19.5362 11C15.3809 11 12 14.4433 12 18.6753C12 22.9073 15.3809 26.3506 19.5362 26.3506C21.1962 26.3506 22.7275 25.7944 23.9741 24.8647L29.526 30.1983C29.9883 30.6425 30.7221 30.6317 31.1713 30.1742V30.1742C31.6275 29.7096 31.6166 28.9619 31.147 28.5108L25.6135 23.195ZM19.5362 23.989C16.6592 23.989 14.3188 21.6054 14.3188 18.6753C14.3188 15.7452 16.6592 13.3616 19.5362 13.3616C22.4133 13.3616 24.7536 15.7452 24.7536 18.6753C24.7536 21.6054 22.4132 23.989 19.5362 23.989Z" fill="#23C2A8"/>
</svg>
