<svg width="23" height="23" viewBox="0 0 23 23" fill="none" xmlns="http://www.w3.org/2000/svg">
<path d="M17.1545 4.08484C16.7729 4.08484 16.398 4.23933 16.1285 4.51002C15.8577 4.77939 15.702 5.1544 15.702 5.53733C15.702 5.91907 15.8578 6.29394 16.1285 6.56463C16.3979 6.834 16.7729 6.98982 17.1545 6.98982C17.5374 6.98982 17.9111 6.834 18.1818 6.56463C18.4525 6.29394 18.607 5.91894 18.607 5.53733C18.607 5.1544 18.4525 4.77939 18.1818 4.51002C17.9125 4.23933 17.5374 4.08484 17.1545 4.08484Z" fill="#C1426E"/>
<path d="M11.1615 5.76678C7.98965 5.76678 5.40924 8.3472 5.40924 11.519C5.40924 14.6907 7.98965 17.271 11.1615 17.271C14.3333 17.271 16.9137 14.6907 16.9137 11.519C16.9137 8.3472 14.3333 5.76678 11.1615 5.76678ZM11.1615 15.2902C9.08192 15.2902 7.38991 13.5985 7.38991 11.5189C7.38991 9.4392 9.08179 7.74732 11.1615 7.74732C13.2412 7.74732 14.9331 9.4392 14.9331 11.5189C14.9331 13.5985 13.2411 15.2902 11.1615 15.2902Z" fill="#C1426E"/>
<path d="M16.163 0.355469H6.1604C2.76356 0.355469 0 3.11916 0 6.516V16.5186C0 19.9156 2.76356 22.6792 6.1604 22.6792H16.163C19.5601 22.6792 22.3237 19.9155 22.3237 16.5186V6.516C22.3238 3.11916 19.5601 0.355469 16.163 0.355469ZM20.3432 16.5186C20.3432 18.8235 18.468 20.6985 16.1632 20.6985H6.1604C3.8557 20.6986 1.98067 18.8235 1.98067 16.5186V6.516C1.98067 4.2113 3.8557 2.33614 6.1604 2.33614H16.163C18.4679 2.33614 20.343 4.2113 20.343 6.516V16.5186H20.3432Z" fill="#C1426E"/>
</svg>
