<svg width="29" height="25" viewBox="0 0 29 25" fill="none" xmlns="http://www.w3.org/2000/svg">
<path fill-rule="evenodd" clip-rule="evenodd" d="M0 1.7H3.76189C3.90169 1.7 4.02296 1.79656 4.05427 1.93281L7.60456 17.3808C7.68247 17.7198 7.85869 18.0155 8.09893 18.2405L8.23145 18.9205H25.3952L25.4906 18.4312C25.8698 18.188 26.1489 17.7966 26.2411 17.3286L28.4517 6.10635C28.6587 5.05577 27.8546 4.07778 26.7838 4.07778H5.98373L5.4187 1.61923C5.24126 0.847169 4.55408 0.299999 3.76189 0.299999H0V1.7ZM25.4906 18.4312L28.0358 5.3714H5.59087L8.09893 18.2405C8.40577 18.5279 8.81705 18.7 9.26136 18.7H24.5731C24.9083 18.7 25.2241 18.6022 25.4906 18.4312ZM8.96899 17.0672L6.30548 5.47778H26.7838C26.9728 5.47778 27.1147 5.65036 27.0781 5.83576L24.8675 17.058C24.8398 17.1986 24.7165 17.3 24.5731 17.3H9.26136C9.12157 17.3 9.0003 17.2034 8.96899 17.0672ZM21.8491 22.0592C21.8491 23.4293 20.7127 24.54 19.3109 24.54C17.909 24.54 16.7726 23.4293 16.7726 22.0592C16.7726 20.6891 17.909 19.5785 19.3109 19.5785C20.7127 19.5785 21.8491 20.6891 21.8491 22.0592ZM11.4837 24.54C12.8855 24.54 14.0219 23.4293 14.0219 22.0592C14.0219 20.6891 12.8855 19.5785 11.4837 19.5785C10.0818 19.5785 8.94539 20.6891 8.94539 22.0592C8.94539 23.4293 10.0818 24.54 11.4837 24.54Z" fill="#23C2A8"/>
</svg>
