<svg width="35" height="36" viewBox="0 0 35 36" fill="none" xmlns="http://www.w3.org/2000/svg">
<path d="M1.30664 3.02344C1.30664 1.64273 2.42593 0.523438 3.80664 0.523438H31.9998C33.3806 0.523438 34.4998 1.64273 34.4998 3.02344V32.1165C34.4998 33.4972 33.3806 34.6165 31.9998 34.6165H3.80664C2.42593 34.6165 1.30664 33.4972 1.30664 32.1165V3.02344Z" fill="white" stroke="#0077B5"/>
<path d="M26.897 25.2189V25.2182H26.9013V18.948C26.9013 15.8806 26.2409 13.5177 22.6549 13.5177C20.931 13.5177 19.7741 14.4637 19.3018 15.3606H19.252V13.8041H15.8519V25.2182H19.3923V19.5663C19.3923 18.0782 19.6744 16.6393 21.5173 16.6393C23.3331 16.6393 23.3602 18.3375 23.3602 19.6618V25.2189H26.897Z" fill="#0077B5"/>
<path d="M10.0866 13.8044H13.6313V25.2186H10.0866V13.8044Z" fill="#0077B5"/>
<path d="M11.8576 8.12195C10.7243 8.12195 9.8046 9.0416 9.8046 10.175C9.8046 11.3083 10.7243 12.2472 11.8576 12.2472C12.991 12.2472 13.9106 11.3083 13.9106 10.175C13.9099 9.0416 12.9903 8.12195 11.8576 8.12195Z" fill="#0077B5"/>
</svg>
