<svg width="18" height="18" viewBox="0 0 18 18" fill="none" xmlns="http://www.w3.org/2000/svg">
<path fill-rule="evenodd" clip-rule="evenodd" d="M2.53738 14.4943C2.66648 14.5837 3.16055 14.8295 3.58014 14.3007L6.41545 10.157L9.4171 13.0519C9.576 13.2033 9.792 13.2828 10.013 13.2579C10.229 13.2356 10.4276 13.1214 10.5567 12.9426L15.5346 5.80469L15.7134 8.1931C15.7581 8.7989 16.3266 8.89821 16.5178 8.88331C16.9299 8.85103 17.2403 8.49352 17.208 8.0789L16.8927 3.88055C16.8629 3.46841 16.5029 3.15807 16.0883 3.19034L11.8899 3.50566C11.4778 3.53545 11.1674 3.89545 11.1997 4.31007C11.2295 4.72221 11.5846 5.03007 12.0041 5.00028L14.3926 4.81903L9.82924 11.3586L6.82262 8.45628C6.66372 8.30235 6.44524 8.22538 6.22676 8.25021C6.00579 8.27255 5.80717 8.38924 5.68303 8.57297L2.34372 13.4516C2.10786 13.7942 2.19724 14.261 2.53738 14.4943ZM17.2502 16.5004H1.49959V0.749793C1.49959 0.335172 1.16441 0 0.749793 0C0.335172 0 0 0.335172 0 0.749793V17.2502C0 17.6648 0.335172 18 0.749793 18H17.2502C17.6648 18 18 17.6648 18 17.2502C18 16.8356 17.6648 16.5004 17.2502 16.5004Z" fill="#DFDEDF"/>
</svg>
