<svg width="42" height="42" viewBox="0 0 42 42" fill="none" xmlns="http://www.w3.org/2000/svg">
<circle cx="21" cy="21" r="20.35" fill="white" stroke="#23C2A8" stroke-width="1.3"/>
<path d="M11 14.6C11 13.7163 11.7232 13 12.6154 13H30.3846C31.2768 13 32 13.7163 32 14.6C32 15.4837 31.2768 16.2 30.3846 16.2H12.6154C11.7232 16.2 11 15.4837 11 14.6Z" fill="#23C2A8"/>
<path d="M11 27.4C11 26.5163 11.7232 25.8 12.6154 25.8H30.3846C31.2768 25.8 32 26.5163 32 27.4C32 28.2837 31.2768 29 30.3846 29H12.6154C11.7232 29 11 28.2837 11 27.4Z" fill="#23C2A8"/>
<path d="M11 21C11 20.1163 11.7232 19.4 12.6154 19.4H25.5385C26.4306 19.4 27.1538 20.1163 27.1538 21C27.1538 21.8837 26.4306 22.6 25.5385 22.6H12.6154C11.7232 22.6 11 21.8837 11 21Z" fill="#23C2A8"/>
</svg>
