<svg width="32" height="14" viewBox="0 0 32 14" fill="none" xmlns="http://www.w3.org/2000/svg">
<path d="M11.012 4.06V10H9.293L7.448 6.787L6.998 5.905H6.989L7.025 7.003V10H5.657V4.06H7.376L9.221 7.273L9.671 8.155H9.68L9.644 7.057V4.06H11.012ZM12.7779 10V4.06H17.4039V5.257H14.3259V6.463H16.7739V7.588H14.3259V8.803H17.5209V10H12.7779ZM20.0486 10L18.3386 4.06H19.9856L20.9936 8.749L22.0556 4.06H23.4596L24.5486 8.74L25.5386 4.06H27.1316L25.4126 10H23.7296L23.0276 7.12L22.7576 5.671H22.7396L22.4786 7.12L21.7856 10H20.0486Z" fill="#23C2A8"/>
<rect x="0.5" y="0.5" width="31" height="13" rx="6.5" stroke="#23C2A8"/>
</svg>
