<svg width="36" height="14" viewBox="0 0 36 14" fill="none" xmlns="http://www.w3.org/2000/svg">
<path d="M0 7C0 3.13401 3.13401 0 7 0H29C32.866 0 36 3.13401 36 7C36 10.866 32.866 14 29 14H7C3.13401 14 0 10.866 0 7Z" fill="#81C719"/>
<path d="M13.1713 3.4H12.1813V7.66L12.2213 8.78H12.2113L11.5612 7.55L9.02125 3.4H7.76125V10H8.74125V5.74L8.70125 4.62H8.71125L9.35125 5.84L11.9012 10H13.1713V3.4Z" fill="white"/>
<path d="M16.1945 9.08V7.12H19.0945V6.22H16.1945V4.32H19.9045V3.4H15.1245V10H20.0445V9.08H16.1945Z" fill="white"/>
<path d="M25.032 6.04L25.362 4.52H25.372L25.702 6.04L26.752 10H28.012L29.942 3.4H28.842L27.392 9.16L25.932 3.4H24.832L23.382 9.15L21.942 3.4H20.782L22.722 10H23.992L25.032 6.04Z" fill="white"/>
</svg>
