<svg width="19" height="20" viewBox="0 0 19 20" fill="none" xmlns="http://www.w3.org/2000/svg">
<path d="M18.342 4.71496C18.342 4.63928 18.3261 4.5636 18.2923 4.49191C18.2245 4.34852 18.0951 4.25093 17.9517 4.22106L9.38213 0.0507842C9.24272 -0.0169281 9.07941 -0.0169281 8.94001 0.0507842L0.286781 4.26089C0.119492 4.34055 0.00995768 4.50983 0 4.70102V15.284C0 15.4772 0.109535 15.6565 0.286781 15.7401L8.94001 19.9482C8.94399 19.9482 8.94399 19.9482 8.94797 19.9522C8.95992 19.9562 8.97386 19.9602 8.98581 19.9681C8.98979 19.9681 8.99378 19.9721 9.00174 19.9721C9.01369 19.9761 9.02763 19.9801 9.03958 19.9841C9.04357 19.9841 9.04755 19.9881 9.05153 19.9881C9.06348 19.992 9.08141 19.992 9.09335 19.996H9.1053C9.12124 19.996 9.14314 20 9.15908 20C9.17501 20 9.19691 20 9.21285 19.996H9.2248C9.23675 19.996 9.25467 19.992 9.26662 19.9881C9.2706 19.9881 9.27458 19.9841 9.27857 19.9841C9.29052 19.9801 9.30446 19.9761 9.31641 19.9721C9.32039 19.9721 9.32437 19.9681 9.33433 19.9681C9.34628 19.9642 9.36022 19.9602 9.37217 19.9522C9.37615 19.9522 9.37615 19.9522 9.38014 19.9482L18.0593 15.7282C18.2325 15.6445 18.346 15.4673 18.346 15.2721V4.7289C18.3421 4.72492 18.342 4.72094 18.342 4.71496ZM9.15908 1.06846L16.6632 4.72094L13.8989 6.06721L6.39482 2.41474L9.15908 1.06846ZM8.65323 18.6796L1.00971 14.9614V5.53547L8.65323 9.25367V18.6796ZM9.15908 8.37142L1.65298 4.72094L5.23774 2.97834L12.7438 6.62883L9.15908 8.37142ZM17.3323 14.9435L9.66293 18.6796V9.25367L13.2517 7.50709V9.97262C13.2517 10.2514 13.4787 10.4785 13.7575 10.4785C14.0363 10.4785 14.2614 10.2514 14.2614 9.97262V7.01319L17.3323 5.51954V14.9435V14.9435Z" fill="#DFDEDF"/>
</svg>
