<svg width="14" height="14" viewBox="0 0 14 14" fill="none" xmlns="http://www.w3.org/2000/svg">
<path d="M13.619 10.2746L11.6653 8.32085C10.9675 7.62308 9.78129 7.90222 9.50218 8.80928C9.29286 9.4373 8.59509 9.78618 7.9671 9.6466C6.57157 9.29772 4.68761 7.48353 4.33872 6.01822C4.12939 5.39021 4.54805 4.69244 5.17604 4.48314C6.08314 4.20403 6.36224 3.01783 5.66448 2.32007L3.71074 0.366327C3.15252 -0.122109 2.31521 -0.122109 1.82677 0.366327L0.501017 1.69208C-0.824736 3.08761 0.64057 6.78576 3.92007 10.0653C7.19956 13.3448 10.8977 14.8799 12.2932 13.4843L13.619 12.1586C14.1075 11.6003 14.1075 10.763 13.619 10.2746Z" fill="#23C2A8"/>
</svg>
