<svg width="36" height="36" viewBox="0 0 36 36" fill="none" xmlns="http://www.w3.org/2000/svg">
<path d="M1.35547 3.02344C1.35547 1.64273 2.47476 0.523438 3.85547 0.523438H32.0487C33.4294 0.523438 34.5487 1.64273 34.5487 3.02344V32.1165C34.5487 33.4972 33.4294 34.6165 32.0487 34.6165H3.85547C2.47476 34.6165 1.35547 33.4972 1.35547 32.1165V3.02344Z" stroke="#D82C1F"/>
<path d="M18.2228 7.60303C12.7591 7.60303 9.85342 11.1043 9.85342 14.922C9.85342 16.6926 10.8427 18.9005 12.4264 19.6008C12.6669 19.7092 12.7977 19.6631 12.8513 19.44C12.8987 19.2706 13.1067 18.4545 13.2077 18.0694C13.2388 17.9461 13.2226 17.8389 13.1229 17.7231C12.5971 17.115 12.1797 16.0073 12.1797 14.9681C12.1797 12.3054 14.2967 9.71999 17.8989 9.71999C21.0139 9.71999 23.1931 11.7435 23.1931 14.638C23.1931 17.9087 21.4624 20.1715 19.2134 20.1715C17.9686 20.1715 17.0416 19.1946 17.3357 17.986C17.6908 16.5468 18.3873 14.9993 18.3873 13.9614C18.3873 13.0306 17.8615 12.2606 16.7874 12.2606C15.5202 12.2606 14.4923 13.5153 14.4923 15.1999C14.4923 16.2702 14.8711 16.9929 14.8711 16.9929C14.8711 16.9929 13.6176 22.0567 13.3846 23.0024C12.9909 24.6035 13.4382 27.1964 13.4768 27.4194C13.5005 27.5428 13.6388 27.5814 13.716 27.4805C13.8394 27.3185 15.3545 25.1567 15.7794 23.5942C15.9339 23.0248 16.5681 20.716 16.5681 20.716C16.9855 21.4698 18.1904 22.1015 19.4738 22.1015C23.2916 22.1015 26.0502 18.746 26.0502 14.5819C26.0365 10.5897 22.62 7.60303 18.2228 7.60303Z" fill="#D82C1F"/>
</svg>
