<svg width="21" height="14" viewBox="0 0 21 14" fill="none" xmlns="http://www.w3.org/2000/svg">
<path fill-rule="evenodd" clip-rule="evenodd" d="M17.918 0H2.6153C1.16716 0 0 1.19778 0 2.68444V11.3156C0 12.8022 1.16716 14 2.6153 14H17.918C19.3662 14 20.5333 12.8022 20.5333 11.3156V2.66222C20.5333 1.19778 19.3662 0 17.918 0ZM19.4959 11.3156C19.4959 12.2022 18.7826 12.9356 17.918 12.9356H2.6153C1.75074 12.9356 1.03747 12.2044 1.03747 11.3156V2.66222C1.03747 1.77556 1.75074 1.04222 2.6153 1.04222H17.918C18.7826 1.04222 19.4959 1.77333 19.4959 2.66222V11.3156ZM17.0967 3.21778H11.4338C11.1528 3.21778 10.9151 3.46222 10.9151 3.75111C10.9151 4.04 11.1528 4.28444 11.4338 4.28444H17.0751C17.3561 4.28444 17.5938 4.04 17.5938 3.75111C17.6154 3.46222 17.3777 3.21778 17.0967 3.21778ZM17.0967 6.45778H13.5952C13.3142 6.45778 13.0765 6.70222 13.0765 6.99111C13.0765 7.28 13.3142 7.52445 13.5952 7.52445H17.0751C17.3561 7.52445 17.5938 7.28 17.5938 6.99111C17.5938 6.7 17.3777 6.45778 17.0967 6.45778ZM4.23635 2.99556C3.63116 2.99556 3.15565 3.48444 3.15565 4.10444C3.15565 4.70444 3.63116 5.21333 4.23635 5.21333C4.84154 5.21333 5.31705 4.72444 5.31705 4.10444C5.31705 3.48444 4.84154 2.99556 4.23635 2.99556Z" fill="#23C2A8"/>
</svg>
