<svg width="21" height="15" viewBox="0 0 21 15" fill="none" xmlns="http://www.w3.org/2000/svg">
<path fill-rule="evenodd" clip-rule="evenodd" d="M18.9682 0H1.94091C0.868182 0 0 0.865909 0 1.93182V13.0682C0 14.1341 0.868182 15 1.94091 15H18.9682C20.0386 15 20.9091 14.1341 20.9091 13.0682V1.93182C20.9068 0.865909 20.0386 0 18.9682 0ZM19.7659 13.0682C19.7659 13.5068 19.4091 13.8636 18.9682 13.8636H1.94091C1.5 13.8636 1.14318 13.5068 1.14318 13.0682V1.93182C1.14091 1.49318 1.5 1.13636 1.94091 1.13636H18.9682C19.4091 1.13636 19.7659 1.49318 19.7659 1.93182V13.0682V13.0682ZM18.0091 2.31818H14.5841C14.2682 2.31818 14.0136 2.57273 14.0136 2.88636V6.29545C14.0136 6.60909 14.2682 6.86364 14.5841 6.86364H18.0068C18.3227 6.86364 18.5773 6.60909 18.5773 6.29545V2.88636C18.5795 2.57273 18.3227 2.31818 18.0091 2.31818ZM17.4386 5.72727H15.1545V3.45455H17.4364V5.72727H17.4386ZM2.89773 3.45455H5.13409C5.45 3.45455 5.70455 3.2 5.70455 2.88636C5.70455 2.57273 5.45 2.31818 5.13409 2.31818H2.89773C2.58182 2.31818 2.32727 2.57273 2.32727 2.88636C2.32727 3.2 2.58409 3.45455 2.89773 3.45455ZM2.89773 9.95455H7.46364C7.77955 9.95455 8.03409 9.7 8.03409 9.38636C8.03409 9.07273 7.77955 8.81818 7.46364 8.81818H2.89773C2.58182 8.81818 2.32727 9.07273 2.32727 9.38636C2.32727 9.7 2.58409 9.95455 2.89773 9.95455ZM12.1205 11.3636H2.89773C2.58182 11.3636 2.32727 11.6182 2.32727 11.9318C2.32727 12.2455 2.58182 12.5 2.89773 12.5H12.1182C12.4341 12.5 12.6886 12.2455 12.6886 11.9318C12.6909 11.6182 12.4341 11.3636 12.1205 11.3636Z" fill="#23C2A8"/>
</svg>
