<svg width="18" height="20" viewBox="0 0 18 20" fill="none" xmlns="http://www.w3.org/2000/svg">
<path d="M17.9961 4.71496C17.9961 4.63928 17.9805 4.5636 17.9472 4.49191C17.8808 4.34852 17.7538 4.25093 17.6131 4.22106L9.20517 0.0507842C9.06839 -0.0169281 8.90816 -0.0169281 8.77138 0.0507842L0.281372 4.26089C0.117238 4.34055 0.00976987 4.50983 0 4.70102V15.284C0 15.4772 0.107469 15.6565 0.281372 15.7401L8.77138 19.9482C8.77529 19.9482 8.77529 19.9482 8.7792 19.9522C8.79092 19.9562 8.8046 19.9602 8.81633 19.9681C8.82023 19.9681 8.82414 19.9721 8.83196 19.9721C8.84368 19.9761 8.85736 19.9801 8.86908 19.9841C8.87299 19.9841 8.8769 19.9881 8.88081 19.9881C8.89253 19.992 8.91012 19.992 8.92184 19.996H8.93356C8.9492 19.996 8.97069 20 8.98632 20C9.00195 20 9.02345 20 9.03908 19.996H9.0508C9.06253 19.996 9.08011 19.992 9.09184 19.9881C9.09574 19.9881 9.09965 19.9841 9.10356 19.9841C9.11528 19.9801 9.12896 19.9761 9.14069 19.9721C9.14459 19.9721 9.1485 19.9681 9.15827 19.9681C9.17 19.9642 9.18367 19.9602 9.1954 19.9522C9.19931 19.9522 9.1993 19.9522 9.20321 19.9482L17.7186 15.7282C17.8886 15.6445 18 15.4673 18 15.2721V4.7289C17.9961 4.72492 17.9961 4.72094 17.9961 4.71496ZM8.98632 1.06846L16.3489 4.72094L13.6368 6.06721L6.27421 2.41474L8.98632 1.06846ZM8.49001 18.6796L0.990664 14.9614V5.53547L8.49001 9.25367V18.6796ZM8.98632 8.37142L1.6218 4.72094L5.13895 2.97834L12.5035 6.62883L8.98632 8.37142ZM17.0054 14.9435L9.48068 18.6796V9.25367L13.0017 7.50709V9.97262C13.0017 10.2514 13.2245 10.4785 13.498 10.4785C13.7716 10.4785 13.9924 10.2514 13.9924 9.97262V7.01319L17.0054 5.51954V14.9435V14.9435Z" fill="#23C2A8"/>
</svg>
