<svg width="15" height="18" viewBox="0 0 15 18" fill="none" xmlns="http://www.w3.org/2000/svg">
<path fill-rule="evenodd" clip-rule="evenodd" d="M13.9514 0H0.449419C0.201464 0 0 0.201464 0 0.449419V17.5506C0 17.7985 0.201464 18 0.449419 18H13.9514C14.1993 18 14.4008 17.7985 14.4008 17.5506V0.449419C14.4008 0.201464 14.1993 0 13.9514 0ZM13.5 17.1012H0.900775V9.90077H13.5019V17.1012H13.5ZM4.23655 9L5.91025 7.3263L6.96406 8.00818L6.09621 9H4.23655ZM7.29143 9L9.4223 6.56307L11.249 9H7.29143ZM13.5 9H12.3745L9.81167 5.58093C9.73031 5.47245 9.60439 5.40659 9.46879 5.40077C9.33319 5.39109 9.19953 5.44727 9.11429 5.55381L7.56457 7.32437L6.09621 6.37322C5.91799 6.257 5.6836 6.28218 5.53444 6.43328L2.96384 9H0.900775V0.900775H13.5019V9H13.5ZM4.05058 5.40077C4.79638 5.40077 5.40077 4.79638 5.40077 4.05058C5.40077 3.30478 4.79638 2.70039 4.05058 2.70039C3.30478 2.70039 2.70039 3.30478 2.70039 4.05058C2.70039 4.79638 3.30478 5.39884 4.05058 5.40077ZM4.05058 3.60116C4.29854 3.60116 4.5 3.80263 4.5 4.05058C4.5 4.29854 4.29854 4.5 4.05058 4.5C3.80263 4.5 3.60116 4.29854 3.60116 4.05058C3.60116 3.80263 3.80263 3.60116 4.05058 3.60116ZM3.02583 12.731H10.4083C10.6563 12.731 10.8577 12.5295 10.8577 12.2815C10.8577 12.0336 10.6563 11.8321 10.4083 11.8321H3.02583C2.77787 11.8321 2.57641 12.0336 2.57641 12.2815C2.57447 12.5295 2.77594 12.731 3.02583 12.731ZM3.02583 14.9761H5.90831C6.15626 14.9761 6.35773 14.7746 6.35773 14.5267C6.35773 14.2787 6.15626 14.0773 5.90831 14.0773H3.02583C2.77787 14.0773 2.57641 14.2787 2.57641 14.5267C2.57447 14.7746 2.77594 14.9761 3.02583 14.9761Z" fill="#23C2A8"/>
</svg>
