<svg width="20" height="20" viewBox="0 0 20 20" fill="none" xmlns="http://www.w3.org/2000/svg">
<path d="M17.335 5.40032V0.666533C17.335 0.452057 17.2323 0.250712 17.0575 0.125966C16.8827 0.0012199 16.6598 -0.0337966 16.4566 0.0340478L6.57958 3.3256H1.99944C0.89811 3.3256 0 4.22289 0 5.32591V12.0053C0 13.1083 0.89811 14.0056 1.99944 14.0056H2.66592V17.9997C2.66592 19.1027 3.56403 20 4.66536 20H6.6648C7.0341 20 7.33128 19.7024 7.33128 19.3325V14.2573L16.4544 17.2972C16.5243 17.3212 16.5943 17.3322 16.6664 17.3322C16.804 17.3322 16.9417 17.2884 17.0553 17.2074C17.2302 17.0827 17.3329 16.8813 17.3329 16.6669V11.9309C18.8516 11.6201 19.9988 10.2742 19.9988 8.66561C20.001 7.05704 18.8537 5.7089 17.335 5.40032ZM6.00051 18.665H4.66755C4.30044 18.665 4.00107 18.3652 4.00107 17.9975V14.0056H6.00051V18.665ZM6.00051 12.6662H3.33459C3.32366 12.6662 3.31274 12.6728 3.30181 12.6728H1.99944C1.63233 12.6728 1.33296 12.373 1.33296 12.0053V5.32591C1.33296 4.95824 1.63233 4.65841 1.99944 4.65841H6.00051V12.6662ZM16.0021 15.7411L7.33566 12.8523V4.48114L16.0021 1.59228V15.7411ZM17.335 10.5521V6.7791C18.1108 7.05485 18.668 7.79676 18.668 8.66561C18.668 9.53445 18.1108 10.2764 17.335 10.5521Z" fill="#DFDEDF"/>
</svg>
