<svg width="21" height="21" viewBox="0 0 21 21" fill="none" xmlns="http://www.w3.org/2000/svg">
<path d="M21 3.17658V1.94611H3.25209V0H2.02162V1.94607H0V3.17654H2.02162V21H3.25209V3.17658H6.89637V4.97474H5.26673V14.1104H19.1908V4.9747H17.5914V3.17658H21ZM8.12688 3.17658H16.3609V4.97474H8.12688V3.17658ZM9.74035 10.3421C9.68342 10.4475 9.60832 10.5316 9.51517 10.5945C9.42195 10.6575 9.31662 10.7029 9.19923 10.7308C9.08176 10.7586 8.96372 10.7725 8.8451 10.7725C8.75068 10.7725 8.6538 10.7652 8.55459 10.7507C8.45525 10.7362 8.35665 10.7157 8.25858 10.689C8.16051 10.6624 8.06609 10.6309 7.97532 10.5946C7.88452 10.5583 7.80035 10.5171 7.72291 10.4711L8.02799 9.85007C8.11269 9.90335 8.20107 9.95055 8.29311 9.99173C8.37059 10.028 8.45837 10.0607 8.55643 10.0898C8.6545 10.1188 8.75433 10.1334 8.85605 10.1334C8.93353 10.1334 8.98738 10.1231 9.0177 10.1025C9.04792 10.082 9.06306 10.0547 9.06306 10.0208C9.06306 9.98447 9.04792 9.95359 9.0177 9.92816C8.98743 9.90273 8.94563 9.88038 8.89239 9.86098C8.83911 9.84162 8.778 9.8223 8.70897 9.80286C8.63994 9.7835 8.56669 9.76053 8.48925 9.73383C8.37547 9.69515 8.27736 9.6534 8.19509 9.60853C8.11273 9.56378 8.04493 9.51292 7.99173 9.45599C7.93841 9.39914 7.89908 9.33434 7.87369 9.2617C7.84826 9.18906 7.83554 9.10551 7.83554 9.01109C7.83554 8.86828 7.86155 8.74236 7.9136 8.63338C7.96564 8.52444 8.03644 8.43363 8.12606 8.36099C8.21564 8.2884 8.31793 8.23331 8.43294 8.19574C8.5479 8.15821 8.6696 8.13947 8.79789 8.13947C8.89235 8.13947 8.98431 8.14853 9.07389 8.1667C9.16346 8.18483 9.25005 8.20788 9.33356 8.23569C9.41711 8.26354 9.49516 8.29381 9.56784 8.3265C9.64048 8.35919 9.70581 8.39003 9.76393 8.41911L9.45886 9.00383C9.38622 8.96023 9.31112 8.92155 9.23368 8.88763C9.16831 8.8586 9.09505 8.83132 9.01396 8.80593C8.93279 8.7805 8.85355 8.76779 8.77607 8.76779C8.71311 8.76779 8.66287 8.77747 8.62538 8.79683C8.58781 8.81623 8.56907 8.84892 8.56907 8.89489C8.56907 8.92881 8.57998 8.95662 8.60176 8.9784C8.62354 9.00018 8.65499 9.02016 8.69621 9.03833C8.73735 9.05646 8.7876 9.07409 8.84695 9.09099C8.90621 9.10797 8.9734 9.12856 9.0485 9.15272C9.16712 9.18902 9.27425 9.22897 9.3699 9.27257C9.4655 9.31617 9.54721 9.3676 9.61505 9.42691C9.6828 9.48626 9.73494 9.55828 9.77123 9.64302C9.80757 9.7278 9.8257 9.83067 9.8257 9.9517C9.82566 10.1067 9.7972 10.2368 9.74035 10.3421ZM11.5616 10.7398L11.4055 10.235H10.7191L10.5665 10.7398H9.84379L10.7408 8.16129H11.3873L12.2807 10.7398H11.5616ZM14.3726 10.7398H14.3726H12.495V8.16129H13.2032V10.1224H14.3726V10.7398ZM16.4572 10.7398H14.6195V8.16129H16.4245V8.7787H15.3277V9.14185H16.2647V9.71566H15.3277V10.1224H16.4572V10.7398Z" fill="#DFDEDF"/>
</svg>
