<svg width="14" height="14" viewBox="0 0 14 14" fill="none" xmlns="http://www.w3.org/2000/svg">
<path d="M13.8669 7.80317L8.58874 2.37189C8.50975 2.2852 8.39857 2.23588 8.283 2.23738H4.92854C4.79396 1.95939 4.6228 1.70083 4.41799 1.47216C3.57243 0.50965 2.18705 0 0.43741 0C0.19603 0 0 0.201767 0 0.449867C0 0.697966 0.19603 0.899734 0.43741 0.899734C1.93982 0.899734 3.09113 1.30476 3.77577 2.08493C3.82258 2.13724 3.86647 2.19254 3.90743 2.24933H3.01798C2.7766 2.24933 2.58057 2.4511 2.58057 2.6992V8.11703C2.57765 8.2366 2.62592 8.35168 2.71224 8.43239L7.99041 13.8652C8.15133 14.0385 8.41905 14.046 8.58874 13.8801C8.59313 13.8756 8.59899 13.8696 8.60337 13.8652L13.8816 8.44733C14.0454 8.26499 14.0381 7.98102 13.8669 7.80317ZM8.29616 12.9071L3.44076 7.92423V3.13711H4.33021C4.37849 3.31347 4.41214 3.49431 4.43262 3.67665C3.96156 3.89635 3.75383 4.46728 3.96595 4.95152C4.17953 5.43577 4.73398 5.65098 5.20503 5.43128C5.67609 5.21158 5.88382 4.64065 5.6717 4.15641C5.59271 3.98752 5.47128 3.84255 5.32207 3.73643C5.3089 3.53467 5.27964 3.3329 5.23429 3.13562H8.10745L12.9482 8.11853L8.29616 12.9071Z" fill="#23C2A8"/>
</svg>
