<svg width="14" height="14" viewBox="0 0 14 14" fill="none" xmlns="http://www.w3.org/2000/svg">
<path d="M10.3236 9.24784C11.0158 8.28506 11.4299 7.10247 11.4299 5.82044C11.4299 2.61116 8.86606 0 5.71494 0C2.56381 0 0 2.61116 0 5.82044C0 9.02972 2.56384 11.6409 5.71496 11.6409C6.97376 11.6409 8.13503 11.2191 9.08037 10.5141L12.1241 13.4001C12.4753 13.7331 13.0285 13.7232 13.3675 13.3779C13.715 13.024 13.7048 12.4539 13.3449 12.1126L10.3236 9.24784ZM5.71496 9.84996C3.53321 9.84996 1.75846 8.04246 1.75846 5.82044C1.75846 3.59842 3.53321 1.79091 5.71496 1.79091C7.89672 1.79091 9.67147 3.59842 9.67147 5.82044C9.67147 8.04246 7.89669 9.84996 5.71496 9.84996Z" fill="#BABABA"/>
</svg>
