<svg width="30" height="30" viewBox="0 0 30 30" fill="none" xmlns="http://www.w3.org/2000/svg">
<path d="M17.5 15.5L18.3485 16.3485L19.1971 15.5L18.3485 14.6515L17.5 15.5ZM26.8 15C26.8 21.517 21.517 26.8 15 26.8V29.2C22.8424 29.2 29.2 22.8424 29.2 15H26.8ZM15 26.8C8.48304 26.8 3.2 21.517 3.2 15H0.8C0.8 22.8424 7.15756 29.2 15 29.2V26.8ZM3.2 15C3.2 8.48304 8.48304 3.2 15 3.2V0.8C7.15756 0.8 0.8 7.15756 0.8 15H3.2ZM15 3.2C21.517 3.2 26.8 8.48304 26.8 15H29.2C29.2 7.15756 22.8424 0.8 15 0.8V3.2ZM12.1515 11.8485L16.6515 16.3485L18.3485 14.6515L13.8485 10.1515L12.1515 11.8485ZM16.6515 14.6515L12.1515 19.1515L13.8485 20.8485L18.3485 16.3485L16.6515 14.6515Z" fill="#23C2A8"/>
</svg>
