<svg width="19" height="17" viewBox="0 0 19 17" fill="none" xmlns="http://www.w3.org/2000/svg">
<path fill-rule="evenodd" clip-rule="evenodd" d="M11.6222 5.78877H14.6766C14.9394 5.78877 15.1529 5.56285 15.1529 5.28481C15.1529 5.00676 14.9394 4.77867 14.6746 4.77867H11.6222C11.3595 4.77867 11.146 5.00459 11.146 5.28263C11.146 5.56068 11.3575 5.78877 11.6222 5.78877ZM17.6571 0.725265H16.3331C16.3639 0.657925 16.3824 0.584069 16.3824 0.505868C16.3824 0.227821 16.1689 0.00190762 15.9062 0.00190762H14.4939C14.2312 0.00190762 14.0177 0.227821 14.0177 0.505868C14.0177 0.586241 14.0362 0.660098 14.067 0.725265H12.2278C12.2586 0.657925 12.2771 0.584069 12.2771 0.505868C12.2771 0.227821 12.0636 0.00190762 11.8008 0.00190762H10.3886C10.1258 0.00190762 9.91237 0.227821 9.91237 0.505868C9.91237 0.586241 9.93084 0.660098 9.96163 0.725265H8.12244C8.15323 0.657925 8.1717 0.584069 8.1717 0.505868C8.1717 0.227821 7.95822 0.00190762 7.69548 0.00190762H6.28324C6.0205 0.00190762 5.80702 0.227821 5.80702 0.505868C5.80702 0.586241 5.82549 0.660098 5.85628 0.725265H4.01709C4.04788 0.657925 4.06635 0.584069 4.06635 0.505868C4.06635 0.227821 3.85287 0.00190762 3.59013 0.00190762H2.17789C1.91515 -0.000264619 1.70167 0.225649 1.70167 0.503696C1.70167 0.584069 1.72014 0.657925 1.75093 0.723093H0.476221C0.213478 0.725265 0 0.949006 0 1.22923V11.2824C0 11.5604 0.213478 11.7863 0.476221 11.7863H7.18436V16.4958C7.18436 16.7738 7.39784 16.9997 7.66058 16.9997H10.678C10.9408 16.9997 11.1542 16.7738 11.1542 16.4958V11.7863H17.6571C17.9199 11.7863 18.1333 11.5604 18.1333 11.2824V1.22923C18.1333 0.951178 17.9199 0.725265 17.6571 0.725265ZM5.43343 10.8175H3.46286L5.23638 8.94069L6.35303 9.70532L5.43343 10.8175ZM10.1997 16.0309H8.13886V11.7863H10.2018V16.0309H10.1997ZM6.69993 10.8175L8.95788 8.08483L10.8935 10.8175H6.69993ZM17.1788 10.8175H12.0882L9.37046 6.98133C9.28425 6.85968 9.15083 6.78583 9.00714 6.77931C8.86345 6.76845 8.72182 6.83144 8.6315 6.95092L6.98936 8.93635L5.43343 7.86978C5.24459 7.73944 4.99621 7.76768 4.83816 7.93712L2.11426 10.8175H0.954494V1.73319H17.1809V10.8175H17.1788ZM3.47107 5.77139C3.84877 5.77139 4.15461 5.44772 4.15461 5.04803C4.15461 4.64834 3.84877 4.32467 3.47107 4.32467C3.09338 4.32467 2.78753 4.64834 2.78753 5.04803C2.78753 5.44772 3.09338 5.77139 3.47107 5.77139Z" fill="#DFDEDF"/>
</svg>
