<svg width="19" height="17" viewBox="0 0 19 17" fill="none" xmlns="http://www.w3.org/2000/svg">
<path fill-rule="evenodd" clip-rule="evenodd" d="M12.1777 5.78907H15.3781C15.6534 5.78907 15.8771 5.56316 15.8771 5.28511C15.8771 5.00707 15.6534 4.77898 15.3759 4.77898H12.1777C11.9024 4.77898 11.6787 5.00489 11.6787 5.28294C11.6787 5.56099 11.9003 5.78907 12.1777 5.78907ZM18.501 0.72557H17.1138C17.146 0.658231 17.1654 0.584374 17.1654 0.506174C17.1654 0.228126 16.9417 0.0022128 16.6664 0.0022128H15.1867C14.9114 0.0022128 14.6877 0.228126 14.6877 0.506174C14.6877 0.586547 14.707 0.660403 14.7393 0.72557H12.8122C12.8445 0.658231 12.8638 0.584374 12.8638 0.506174C12.8638 0.228126 12.6401 0.0022128 12.3648 0.0022128H10.8851C10.6098 0.0022128 10.3861 0.228126 10.3861 0.506174C10.3861 0.586547 10.4055 0.660403 10.4377 0.72557H8.51064C8.5429 0.658231 8.56226 0.584374 8.56226 0.506174C8.56226 0.228126 8.33858 0.0022128 8.06328 0.0022128H6.58354C6.30824 0.0022128 6.08456 0.228126 6.08456 0.506174C6.08456 0.586547 6.10392 0.660403 6.13618 0.72557H4.20908C4.24134 0.658231 4.2607 0.584374 4.2607 0.506174C4.2607 0.228126 4.03702 0.0022128 3.76172 0.0022128H2.28198C2.00668 4.05558e-05 1.783 0.225954 1.783 0.504001C1.783 0.584374 1.80235 0.658231 1.83462 0.723398H0.498981C0.223681 0.72557 0 0.949312 0 1.22953V11.2827C0 11.5607 0.223681 11.7866 0.498981 11.7866H7.52773V16.4961C7.52773 16.7741 7.75142 17 8.02672 17H11.1884C11.4637 17 11.6873 16.7741 11.6873 16.4961V11.7866H18.501C18.7763 11.7866 19 11.5607 19 11.2827V1.22953C19 0.951484 18.7763 0.72557 18.501 0.72557ZM5.69312 10.8178H3.62837L5.48664 8.941L6.65667 9.70563L5.69312 10.8178ZM10.6872 16.0312H8.52785V11.7866H10.6894V16.0312H10.6872ZM7.02015 10.8178L9.38601 8.08514L11.4142 10.8178H7.02015ZM17.9999 10.8178H12.666L9.81832 6.98164C9.72798 6.85999 9.58818 6.78613 9.43763 6.77962C9.28707 6.76876 9.13867 6.83175 9.04403 6.95122L7.32341 8.93666L5.69312 7.87008C5.49525 7.73975 5.235 7.76799 5.06939 7.93742L2.2153 10.8178H1.00011V1.73349H18.002V10.8178H17.9999ZM3.63697 5.7717C4.03271 5.7717 4.35318 5.44803 4.35318 5.04834C4.35318 4.64864 4.03271 4.32498 3.63697 4.32498C3.24123 4.32498 2.92076 4.64864 2.92076 5.04834C2.92076 5.44803 3.24123 5.7717 3.63697 5.7717Z" fill="#23C2A8"/>
</svg>
