<svg width="24" height="25" viewBox="0 0 24 25" fill="none" xmlns="http://www.w3.org/2000/svg">
<path d="M24 12.5C24 19.4036 18.6274 25 12 25C5.37258 25 0 19.4036 0 12.5C0 5.59644 5.37258 0 12 0C18.6274 0 24 5.59644 24 12.5Z" fill="#23C2A8"/>
<path d="M17.2684 18.2137C17.8207 18.2137 18.2758 17.7637 18.1965 17.2171C17.9888 15.786 17.3374 14.4505 16.3253 13.4151C15.0811 12.1424 13.3937 11.4274 11.6342 11.4274C9.87469 11.4274 8.18726 12.1424 6.94311 13.4151C5.93093 14.4505 5.27959 15.786 5.0719 17.2171C4.99258 17.7637 5.44772 18.2137 6 18.2137H17.2684Z" fill="white"/>
<path d="M14.7774 8.21456C14.7774 9.98992 13.3705 11.4291 11.635 11.4291C9.89943 11.4291 8.4925 9.98992 8.4925 8.21456C8.4925 6.43921 9.89943 5 11.635 5C13.3705 5 14.7774 6.43921 14.7774 8.21456Z" fill="white"/>
</svg>
