<svg width="15" height="14" viewBox="0 0 15 14" fill="none" xmlns="http://www.w3.org/2000/svg">
<path d="M7.40606 0.887098C7.51501 0.660311 7.83793 0.660311 7.94688 0.887097L9.82637 4.79933C9.8701 4.89036 9.9567 4.95328 10.0568 4.96674L14.3583 5.54529C14.6077 5.57883 14.7075 5.88595 14.5255 6.05965L11.3855 9.05609C11.3124 9.12581 11.2794 9.22762 11.2975 9.32697L12.0765 13.5968C12.1217 13.8443 11.8604 14.0341 11.639 13.9147L7.81888 11.8543C7.72999 11.8064 7.62295 11.8064 7.53406 11.8543L3.71398 13.9147C3.49253 14.0341 3.23128 13.8443 3.27644 13.5968L4.05546 9.32697C4.07358 9.22762 4.0405 9.12581 3.96744 9.05609L0.827481 6.05965C0.645461 5.88595 0.74525 5.57883 0.994605 5.54529L5.29615 4.96674C5.39624 4.95328 5.48284 4.89036 5.52658 4.79933L7.40606 0.887098Z" fill="#FFA24D"/>
</svg>
