<svg width="18" height="17" viewBox="0 0 18 17" fill="none" xmlns="http://www.w3.org/2000/svg">
<path d="M16.9832 6.40045C16.594 4.94183 15.8199 3.60179 14.7461 2.5302C13.1152 0.897092 10.9452 0 8.63647 0C6.32998 0 4.15996 0.897092 2.52685 2.52796C-0.842282 5.89486 -0.842282 11.3714 2.52685 14.7383C3.60067 15.8121 4.94072 16.5839 6.39933 16.9732C6.46644 16.9911 6.53356 17 6.60291 17C6.80872 17 7.01007 16.9195 7.15772 16.7696L16.7796 7.1566C16.9787 6.95973 17.057 6.67114 16.9832 6.40045ZM12.2069 5.70246C10.6477 6.10515 9.21588 6.92394 8.07047 8.06935C6.92506 9.21477 6.10626 10.6421 5.70358 12.2013C5.43736 13.2282 5.35682 14.2953 5.45526 15.3468C4.6991 14.9866 4.00336 14.4966 3.4038 13.8971C0.508949 11.0045 0.508949 6.29978 3.4038 3.40716C4.80649 2.00671 6.67002 1.2349 8.65212 1.2349C10.6342 1.2349 12.4978 2.00671 13.9004 3.40716C14.5 4.00671 14.9899 4.70022 15.3501 5.45638C14.3009 5.3557 13.236 5.43624 12.2069 5.70246Z" fill="#DFDEDF"/>
</svg>
