<svg width="18" height="19" viewBox="0 0 18 19" fill="none" xmlns="http://www.w3.org/2000/svg">
<path d="M17.9711 6.78836C17.5592 5.24491 16.7401 3.82692 15.6038 2.693C13.8781 0.964898 11.5818 0.015625 9.13882 0.015625C6.69817 0.015625 4.40192 0.964898 2.67382 2.69063C-0.891274 6.25336 -0.891274 12.0484 2.67382 15.6112C3.81011 16.7474 5.2281 17.5641 6.77155 17.976C6.84257 17.995 6.91359 18.0045 6.98698 18.0045C7.20476 18.0045 7.41782 17.9192 7.57406 17.7606L17.7557 7.5885C17.9663 7.38018 18.0492 7.0748 17.9711 6.78836ZM12.917 6.04978C11.267 6.47589 9.75194 7.3423 8.5399 8.55434C7.32786 9.76638 6.46144 11.2767 6.03534 12.9267C5.75363 14.0133 5.66841 15.1424 5.77257 16.255C4.97243 15.8739 4.23622 15.3555 3.60179 14.7211C0.538552 11.6602 0.538552 6.68184 3.60179 3.62097C5.08606 2.13906 7.05799 1.32235 9.15539 1.32235C11.2528 1.32235 13.2247 2.13906 14.709 3.62097C15.3434 4.25539 15.8618 4.98924 16.243 5.78938C15.1327 5.68285 14.0059 5.76807 12.917 6.04978Z" fill="#23C2A8"/>
</svg>
