<svg width="55" height="29" viewBox="0 0 55 29" fill="none" xmlns="http://www.w3.org/2000/svg">
<path d="M0 1.5C0 0.671573 0.671573 0 1.5 0H53.5C54.3284 0 55 0.671573 55 1.5V27.5C55 28.3284 54.3284 29 53.5 29H1.5C0.671571 29 0 28.3284 0 27.5V1.5Z" fill="#EFEFEF"/>
<path d="M48 15C48 18.866 44.866 22 41 22C37.134 22 34 18.866 34 15C34 11.134 37.134 8 41 8C44.866 8 48 11.134 48 15Z" fill="#FD8516"/>
<path d="M39.1719 10.5599L38.8431 9.75933C38.2723 9.99503 37.746 10.3216 37.2782 10.7303L37.8457 11.3831C38.2421 11.0365 38.6883 10.7595 39.1719 10.5599ZM46.47 14.9981L45.8034 15.0147C45.8034 15.5437 45.7186 16.0632 45.5512 16.5586L46.3692 16.8361C46.5667 16.2511 46.6669 15.6383 46.6667 15.0022L46.47 14.9981ZM44.868 10.8625C44.4151 10.4383 43.9004 10.0933 43.3376 9.83768L42.981 10.6262C43.4579 10.8431 43.8944 11.1355 44.2786 11.4954L44.868 10.8625ZM37.0614 12.2577L36.354 11.7614C35.9987 12.2707 35.7306 12.8309 35.5579 13.4261L36.3873 13.6678C36.5334 13.1637 36.7601 12.6893 37.0614 12.2577ZM46.4938 13.6161C46.342 13.0153 46.0937 12.4462 45.7563 11.9248L45.0321 12.3962C45.3181 12.838 45.5284 13.32 45.657 13.8289L46.4938 13.6161ZM41.8619 10.2762L42.0163 9.42428C41.4155 9.31497 40.784 9.30394 40.177 9.39268L40.3013 10.2494C40.8164 10.1742 41.3531 10.1836 41.8619 10.2762ZM36.1969 15.0147C36.1969 14.9522 36.1982 14.8896 36.2005 14.8277L35.3375 14.7953C35.3346 14.868 35.3334 14.9412 35.3334 15.0147C35.3334 15.5626 35.4111 16.1045 35.5646 16.6255L36.3927 16.3803C36.2629 15.9392 36.1969 15.4794 36.1969 15.0147ZM41.4943 19.8055L41.5819 20.6667C42.1987 20.6035 42.7964 20.4405 43.3584 20.1823L42.9987 19.3951C42.5231 19.6139 42.0167 19.752 41.4943 19.8055ZM43.9965 18.7789L44.5353 19.4553C45.0191 19.0678 45.4338 18.607 45.7684 18.0858L45.0424 17.6172C44.7585 18.0594 44.4067 18.4503 43.9965 18.7789ZM38.4437 20.0866C38.9964 20.3669 39.5874 20.5533 40.2005 20.6403L40.3216 19.783C39.8024 19.7094 39.3018 19.5516 38.8338 19.3141L38.4437 20.0866ZM36.8598 17.4579L36.1161 17.8977C36.43 18.4313 36.8268 18.9079 37.295 19.3137L37.86 18.659C37.4625 18.3144 37.1262 17.9103 36.8598 17.4579Z" fill="white"/>
<path d="M43.3334 15.5455H42.5088V12H40.4211L38 15.9636V16.7727H40.9474V18H42.5088V16.7727H43.3334V15.5455ZM40.4825 14.1636C40.6667 13.8546 40.8422 13.5091 40.9562 13.1818H40.9737L40.9474 14.1727V15.5455H39.6404L40.4825 14.1636Z" fill="white"/>
<path d="M14.9536 14.268H12.3666V11.564H11.1576V14.268H8.55759V15.425H11.1576V18.142H12.3666V15.425H14.9536V14.268Z" fill="#3E3E3E"/>
<path d="M18.6157 10.42C18.1607 11.07 16.7047 11.85 16.0157 11.941L16.2757 13.15C17.0557 12.981 17.8487 12.539 18.4467 11.967C18.4337 12.214 18.4207 12.448 18.4207 12.656V19H19.7857V10.42H18.6157Z" fill="#3E3E3E"/>
<path d="M25.0893 19.13C27.2603 19.13 28.4043 17.596 28.4043 14.71C28.4043 11.824 27.2603 10.29 25.0893 10.29C22.9183 10.29 21.7873 11.824 21.7873 14.71C21.7873 17.596 22.9183 19.13 25.0893 19.13ZM25.0893 17.947C23.8413 17.947 23.2043 16.868 23.2043 14.71C23.2043 12.552 23.8413 11.473 25.0893 11.473C26.3373 11.473 26.9873 12.552 26.9873 14.71C26.9873 16.868 26.3373 17.947 25.0893 17.947Z" fill="#3E3E3E"/>
</svg>
