<svg width="24" height="19" viewBox="0 0 24 19" fill="none" xmlns="http://www.w3.org/2000/svg">
<path d="M23.8621 2.31949C23.7025 2.15143 23.4457 2.10775 23.236 2.21296C23.0205 2.30729 22.7975 2.38493 22.5692 2.44515C22.9253 2.00621 23.1942 1.50768 23.3623 0.974601C23.4363 0.706367 23.2705 0.431114 22.992 0.359827C22.8433 0.321757 22.6848 0.348848 22.5588 0.433846C21.7655 0.847387 20.9222 1.16509 20.0481 1.37971C18.2488 -0.256267 15.5078 -0.460186 13.4689 0.890215C11.8983 1.91311 11.0337 3.68101 11.215 5.49881C7.8104 5.21936 4.67801 3.59427 2.56229 1.0098C2.45361 0.883148 2.28916 0.813416 2.11879 0.82185C1.94603 0.831838 1.7897 0.923715 1.70141 1.06709C0.983355 2.19774 0.775325 3.56162 1.1254 4.84342C1.30491 5.50201 1.61263 6.12178 2.03221 6.66979C1.84321 6.58065 1.66536 6.47105 1.50214 6.34313C1.27835 6.16828 0.949801 6.20127 0.768232 6.41682C0.692905 6.5063 0.65172 6.61796 0.651671 6.73316C0.682682 8.5927 1.74274 10.2946 3.43154 11.196C3.2037 11.1691 2.97879 11.1227 2.75951 11.0573C2.48359 10.9774 2.1926 11.128 2.1096 11.3938C2.0734 11.5097 2.08186 11.6344 2.13342 11.7448C2.86639 13.3264 4.33175 14.4815 6.08619 14.8608C4.41466 15.7692 2.4899 16.1509 0.581773 15.9524C0.334367 15.9219 0.099972 16.0668 0.0255741 16.2961C-0.0511227 16.5237 0.0492484 16.7717 0.265594 16.8892C2.60196 18.2263 5.25979 18.9538 7.977 19C10.5838 18.9908 13.1298 18.2408 15.2961 16.844C19.4314 14.2004 22.0089 9.45408 21.6499 5.20735C22.5341 4.57688 23.3012 3.80681 23.9185 2.92969C24.0454 2.73746 24.0222 2.48708 23.8621 2.31949Z" fill="#03A9F4"/>
</svg>
