<svg width="35" height="36" viewBox="0 0 35 36" fill="none" xmlns="http://www.w3.org/2000/svg">
<path d="M2 0.5H32.1932C33.0216 0.5 33.6932 1.17157 33.6932 2V33.093C33.6932 33.9215 33.0216 34.593 32.1932 34.593H2C1.17157 34.593 0.5 33.9215 0.5 33.093V2C0.5 1.17157 1.17157 0.5 2 0.5Z" stroke="#03A9F4"/>
<path d="M27.7755 11.9876C27.6379 11.8364 27.4164 11.797 27.2356 11.8917C27.0498 11.9766 26.8575 12.0465 26.6606 12.1006C26.9677 11.7057 27.1996 11.2571 27.3445 10.7774C27.4083 10.5361 27.2654 10.2884 27.0252 10.2242C26.897 10.19 26.7603 10.2144 26.6517 10.2908C25.9675 10.6629 25.2404 10.9488 24.4867 11.1419C22.935 9.66986 20.5714 9.48637 18.8132 10.7015C17.4588 11.6219 16.7132 13.2127 16.8695 14.8484C13.9337 14.5969 11.2325 13.1347 9.4081 10.8091C9.31438 10.6951 9.17257 10.6324 9.02566 10.64C8.87668 10.649 8.74187 10.7316 8.66574 10.8606C8.04654 11.878 7.86715 13.1053 8.16903 14.2587C8.32383 14.8513 8.58918 15.409 8.951 15.9021C8.78802 15.8219 8.63465 15.7232 8.4939 15.6081C8.30092 15.4508 8.0176 15.4805 7.86103 15.6744C7.79607 15.755 7.76056 15.8554 7.76052 15.9591C7.78726 17.6323 8.70138 19.1637 10.1577 19.9749C9.9612 19.9506 9.76726 19.9089 9.57817 19.8501C9.34023 19.7781 9.08931 19.9137 9.01773 20.1528C8.98651 20.2571 8.99381 20.3693 9.03827 20.4687C9.67033 21.8918 10.934 22.9313 12.4469 23.2725C11.0054 24.0899 9.34568 24.4334 7.70024 24.2547C7.4869 24.2273 7.28477 24.3577 7.22062 24.5641C7.15448 24.7688 7.24103 24.992 7.42759 25.0977C9.44231 26.3009 11.7342 26.9555 14.0774 26.9971C16.3253 26.9888 18.5208 26.3139 20.3888 25.057C23.9549 22.6783 26.1774 18.4074 25.8679 14.5861C26.6304 14.0188 27.2918 13.3259 27.8242 12.5367C27.9336 12.3637 27.9136 12.1384 27.7755 11.9876Z" fill="#03A9F4"/>
</svg>
