<svg width="25" height="25" viewBox="0 0 25 25" fill="none" xmlns="http://www.w3.org/2000/svg">
<path fill-rule="evenodd" clip-rule="evenodd" d="M24 12.5C24 18.8513 18.8513 24 12.5 24C6.14873 24 1 18.8513 1 12.5C1 6.14873 6.14873 1 12.5 1C18.8513 1 24 6.14873 24 12.5ZM25 12.5C25 19.4036 19.4036 25 12.5 25C5.59644 25 0 19.4036 0 12.5C0 5.59644 5.59644 0 12.5 0C19.4036 0 25 5.59644 25 12.5ZM9.708 15.936C10.352 16.7387 11.2667 17.14 12.452 17.14C13.6373 17.14 14.5473 16.7387 15.182 15.936C15.826 15.124 16.148 13.9387 16.148 12.38C16.148 10.8213 15.826 9.64067 15.182 8.838C14.5473 8.026 13.6373 7.62 12.452 7.62C11.2667 7.62 10.352 8.026 9.708 8.838C9.07333 9.64067 8.756 10.8213 8.756 12.38C8.756 13.9387 9.07333 15.124 9.708 15.936ZM13.782 14.816C13.4927 15.3293 13.0493 15.586 12.452 15.586C11.8547 15.586 11.4113 15.3293 11.122 14.816C10.8327 14.2933 10.688 13.4813 10.688 12.38C10.688 11.2787 10.8327 10.4713 11.122 9.958C11.4113 9.43533 11.8547 9.174 12.452 9.174C13.0493 9.174 13.4927 9.43533 13.782 9.958C14.0713 10.4713 14.216 11.2787 14.216 12.38C14.216 13.4813 14.0713 14.2933 13.782 14.816Z" fill="#FD8516"/>
</svg>
